<mxfile host="Electron" modified="2024-02-16T08:29:05.621Z" agent="Mozilla/5.0 (Windows NT 10.0; Win64; x64) AppleWebKit/537.36 (KHTML, like Gecko) draw.io/21.2.8 Chrome/112.0.5615.165 Electron/24.2.0 Safari/537.36" etag="SkM3hM4KzkhQZQa-kZs4" version="21.2.8" type="device">
  <diagram name="Page-1" id="2XWkQP5S-hDbL94sL5Vg">
    <mxGraphModel dx="2058" dy="1180" grid="1" gridSize="10" guides="1" tooltips="1" connect="1" arrows="1" fold="1" page="1" pageScale="1" pageWidth="3300" pageHeight="4681" background="#999999" math="0" shadow="0">
      <root>
        <mxCell id="0" />
        <mxCell id="1" parent="0" />
        <mxCell id="APLwThIm-aDqV8bCMrbt-1" value="RestAPI" style="rounded=0;whiteSpace=wrap;html=1;fontSize=25;fillColor=#dae8fc;strokeColor=#6c8ebf;" parent="1" vertex="1">
          <mxGeometry x="1298" y="140" width="650" height="60" as="geometry" />
        </mxCell>
        <mxCell id="uGhvX_zP6EAYETRJJXbW-1" value="" style="shape=image;verticalLabelPosition=bottom;labelBackgroundColor=default;verticalAlign=top;aspect=fixed;imageAspect=0;image=data:image/png,iVBORw0KGgoAAAANSUhEUgAABN4AAAJfCAYAAACgzRthAAAAAXNSR0IArs4c6QAAAARnQU1BAACxjwv8YQUAAAAJcEhZcwAADsMAAA7DAcdvqGQAAPRbSURBVHhe7P0PdBTVni98fx1zXzngHIxpT/4gpMFzAnoADRGEE5Ojc2EcwIE8SliJznMXs5zMkSyVeeDyLGA5C1jXF1jLJ6zB4yKc4foM771XyUvUJzBGxoEZFYwi2IlXHYUchYCSBk2MnCuK9+Xc8+5dtatTVV1VXVXdnb/fz1qB7uqurtq7/nTVr39772tm3n7HH0BEREREREREREQZ9UfqfyIiIiIiIiIiIsogBt6IiIiIiIiIiIiygIE3IiIiIiIiIiKiLGDgjYiIiIiIiIiIKAsYeCMiIiIiIiIiIsoCBt6IiIiIiIiIiIiygIE3IiIiIiIiIiKiLLhm5u13/EE9prDG/Qn231GOqHqa8H0batr/FZ+op/4U4G9m1eEvfwR0fd6Cpec+VNMz49ZJ9WiamCc+e7f47Atq6mAxytqLf3h/J/7uspo8JERQWT0bVbMmo6hQTcIZ7FxxEEfUMyIiIiIiIiIiL8x483DrTX+CZ2bV47+X/23ib/+0P8Gfj1NvyIZxt+HeH+kPoxNvxZ/rD2mAVa5ajvrF5qAbEREREREREVEwDLw5KsDfTKtHU0k5fvmjPDVNF80rx1N31OOZm9QE6fK/Ymnbf8Ltib8WvKleCuzyx3j9e/1h1+ef4B/1hzSgIphQoD+K7d6HmhU71R+z3YiIiIiIiIjIPwbekqjmj3ky4NaLNzt3oyYRUNuNJz8/hS7k4Zd5M/S3Z9wF/F27vrxMNzOlgOLtaG7rUU+IiIiIiIiIiIJh4M3upkqtfzXgFJ58fyee+OqCqY+2C/jHc/uw9P3duP0kg2IDpngu1m6tR9OeemyvjqiJRERERERERERD27AZXEH2t7Zyomz6qSagF129R7Hu5IcOgxeorDUYgxsU4M+nPYC/ystLDIDQ1dsm5rUPfNA/sMGbnf8JT3ylJgc2A8+UV+GXKQdX6F+eE38DIBSIuqnEtokRRBPNYt3rJtXgCn8+rR5PyWy/3hbUONXtuBn4m4kVuNdcl9+fwn8+tQ//6Do4grGOU8U66lNk/f/nz/8VmPi3YnnegytUrqpHfal6gj7s37gXe8+qp1miLbOgHevWH0OXmkZEREREREREFMQwyHiTwam/Vf2tqUmaPETzqtBUXo+/cRvs4EcR/HTcDDwzq04LJplHHZV9tTXN+hPcqp5rEgMbnMKh0EG3AaTK1lQiA1rmvuh81I0DGZTzCrrJ1//7HVVaM1xLXf5oKp6642+xf5LqGM1CDy7q66gmCUZfeX81Vk0YigpzMUk9JCIiIiIiIiIKasgH3m6d9IDKCNP7W0sMYPB+C/5BG4QgD395x3KX0T9lQKgKv/xRL/7BNG9N5yn95R+VY6V5kISxET2g1DtQgxr09+dm/qv5vFe97mUGntHKJh5+f8pSPnNfdFN8BraMTDjILD2nTLebluuvy+3weYup3zu9PmVWWHTiA0mBvj+fZmT0Wbdfjdh+b36fZwnGuTnS0o5YXH/c3Xoo69luRERERERERESZMLQDb+P+BNtUsEc2RZT9rSVc/hB/175bBd+m4q8cs62E70/hybad+DvTvJ98tQ9PqthW8Y/657v1R8On/7BbJ1Xgl/KB1px1n6V85r7o/DSXtQTdHJvGFuBvJk7VHr3ZKbbDOWtgTtbnUi2YmYd780zbQWy/v5Kbz2H7fSK23xOJ7ZfC2WN4er0+sujq5mwPdhBBtHohqmTT1ngfzukTiYiIiIiIiIgCG9qBt0QG2lGX/r8u4O8+17PXopHbrM1GNb34B9n3mHpm9ul3frLKhqoC3BdRAclTHn3IXU7uw82uP+h2Ck+69UdnNMH9vg2NboG8rz7Bm+I/y3ZIuf2GkOK52L5HDuCwHNsWT0ZR/Az272L/bkREREREREQU3pAOvBkZaF3feaRtfdejB0dkf27ahPA++V5lU429ySGIN5TchClaE80efJZGQOvWRPNRqQefqkdJjADaj8rRVP63+O+Of1V6Bp6Jr+03RHWLv/P6QyIiIiIiIiKiUIbB4AoDKINBvCEv8oA24IHMYntS9ikng2rTZqgXR6Gzx7B6hWzOug87W/tQVDgZ9Y/OtQwiQUREREREREQUxLAIvEXHmkdAsDGysb73yNjy6/LHeD1Vn3FDSgS3BBi11EwbBVX16faP53bqfd7lVeEZp6o2ApK9LYnBEVz/HJqrem6/IacHR5r3YmeHeMhRTYmIiIiIiIgoDUM68PZJ70k94JNXkTRapq6/0/+uno/d+zrz7QJe69H7fnMaoTNh3Az8zU0+AnNZy5z7EIe01czDX079E/dmseMK3F+zDaTwjydbtD7afllSn1xuIyDpuh2c9W+/W51HnR1nNJlNoXgu1m6V/a/VY3v18BkAg4iIiIiIiIhGt6Gd8Xb5X/GfjQDTHfV4xhzsksGvWXX4Sy1wcwr/+VzqgQT8+OTcy2qkTbXMSTNMwasCrV+0/XdU4S9LPAJz+AqnE5lzpvnFOv95gMCVl3/8vE01iy1H06zltkCgsZ51rs1HkwOVH+IJNTJpcjDPGMTCVCeWchTgzyeJ5ZUvtwbYTBmET4l1NJfdqEd7v3BOKqtmoaxQf1y0eAFqi/XHRERERERERERD2TUzb7/jD+rxEFVgCrA56cU/vL/TNmqmMY/TazpjNM+uz3djaVLQLvUy3+zciSc8xgxIjBZqJ5trnvxQPXHmvW4m4/4E++8o9+iHLLn8qT47sd4O6+laJsP3p7RRZC317bWO4v1vfjcVv8xz305S5ap61JeqJ+jD/o17sfesepoVEdRuXY6laMe69RzZlIiIiIiIiIjCGQZ9vF3A37X/J9R0tuFNLXvK0Iuu3hbUtLkHbMIzL1NveqqTy2zDk+97B92kT87tRM3np6xBGxmY6s3gCJ+X/xVL23bjSbmcDNVNIuNP6+/N2pxWlun291tEGcTnq2kaUUdvfi6W124LuklyHdU8/frf3/idebqzIy3tiMX1x92th7IcdCMiIiIiIiIiyoxhkPFGNNCY8UZERERERERE6RsWo5oSDYrCWagu52AORERERERERBQOM96IHESra7Ftca56ZjiDnSsO4oh6RkRERERERETkhRlvRA66mvdiXesZdKu+5YiIiIiIiIiIgmLGGxERERERERERURYw442IiIiIiIiIiCgLGHgjIiIiIiIiIiLKgiEdeJs0KaoeERERERERERERDS/MeCMiIiIiIiIiIsoCBt6IiIiIiIiIiIiygIE3IiIiIiIiIiKiLGDgjYiIiIiIiIiIKAsYeCMiIiIiIiIiIsoCBt6IiIaC4rnYvnUhKtVTu2h1LbavKlHPiIiIiIiIaDi4Zubtd/xBPR5yJk2K4ty5LvWMsmXqqgYsKC1EX0cjnt9xVE0lJ5HqBtQsLsTp3Q/h1TY1MazyNXisrkw96ZeRzw4po+ULSgaeNs9CkXqaEG/HuvXHMKLPBOULsb1uMoriZ7Bz10EcOaumm8jA27bFuUDHYdTs6FRTiYiIiIiIaChjxtsIIIMlj+15AYvK1YQgimtwZ2mh9jC3YAIi2qPs0dd1Daaq516mrnpBK9djW2uc10sGruTrPj8vfVH8bJasqzj6vtCnpCNSlBRiEmL4LGXAqwKLtHKn+FtVod7vV2bLRz7JgKMMuuEMdq53DrpJXc17sa61Dyidj+3V2T5SiYiIiIiIKBMYeBv20gyWnD2G03H5II7T7cfQo03MFrWu8fPoVVPcRXFjgXpYOAF56mG/KObdr7LFfH1eJkxErlbVJ/Bbl+BIED3Na/DsiofU3wbE5HbwU5byOZiiHnrp6/5cPfIrs+ULTOyLq1fsRE3i7zBi6qWRK4LaR2WWXx/2bzyII2qqGxl829kBFC1egNpiNZGIiIiIiIiGLAbehr10gyVdeGe9DPyswavN2W7Mp9b1wnkfAT79vX1xLSqYJFL9OMoK4+J18cTX52VA8QTkyv+zsrwAddPWYArYPYSmVr2OZPNQ8/Tng27PrJaPnESrF2Cp2O7drYew1+fxe2SHDEjmYumjcxFV04iIiIiIiGhoYuBtuBtOwRKVqXX6PR/9yKly9bWfQB+KcKMlu6cCcxbLPum6ARmcC5zZFdLNap2ysbwgdWOTVyQjdhloHprN8pGDElTLPtvi7XimOcjR24lm2eS0cBaqgzQvL56LtVvr0bSnnk1ViYiIiIiIBggHVxhUUczbugVlFxrxbAswr6oKZbK/tXgMsV0NeAcVydPsWTGqg/6+1g3+MpxcOvRH/ACa1jelDN5Fymsw5/7ZmFIogz1SHH0dJ/BeSxNOJWXsVGDR1irTe73EcGhFA06pZ8Z6nm49gNzFS9Bn6uxfHwCgG4d2Awvke5wGAiiOYmrV41r/dVpgUpJ1+MpLeKfNq57EfKus8/V1HNDK1zvHe+CBiFjn++4v0zPXNHGx/i043nw0db1qZRK1sHFN8jb2JPt7W4kp9vpzFb584UQQLZ+NJ+6/AUWFiSWiuyOGZ3Z0phgwoQRr98xHWZDBFYpLUFtVhtmluYlBGrrjZ9DiMmBBgst8J145gb1tzltPH+wA2L9xr56t5vQZHYfdy1m+EE11k9Hdug+rAwXeBGMgigADLVSuqkd9qXqiNW1V601ERERERERZw4y3QaWaF2IOFm1eqQfYpMIyTKlag4dt08qqkjvLNzro7+v2FZZw6dBfzO+nf7fyNaipW2ILpBUit3QJFmxuwKJyW8M3mbXmK+gm2Po209czjr7j59EnHuUWGZ+tst1aXwLulAHE5MEIZADs4c1btJFaE0E3SdZh3RY8XO3SQK+4Bg/vSZ5PL98azNH60nMa/EAGGF8QdWMOukmFmLJ4JWrcBocw0bPWuvF10ECIkfHYcTx10C10+UIqLsHarcuxTQ4ckAi6SbkoKp2PbXtqM9pPmQyENW2ej6WmwJdUVDgZ9ZvdsrwiqF3lPt/SuuVY6yOrzHXZ4s/tyKy8c7L4tw8njgcMuklnP8UJ2cK49BZU6lOIiIiIiIhoCGLgbTAZQZPSMkzpaEST7Jtrt96dfK6YlmublswYWMF/sMTaoX//Z6cO3BmDGcRxevcG02dsQJP4jD4ZZKp7HPPMgZSzTXg+8b5GnJbTZGZdYprpz5JtZ5RLBqI+1/txU6au0rO73muGPviCfTACLTgo6k487DPqT/sT69mq6naxbT01FVi0eYm+PcQ6HtrYv256+cQ2kquUNPiByjgrlNltYnmm+Z7d2KgPmFC4BHM8gzcVuEVmIvkJntn5bh4atnxhlWDt5vko0z7zDPbv3mcaNGEfdraeEVs3FzffrL87beULsU022xQlibUexjrTIA3rdstluQxIUD5bC5bJ7LadG+3rKEO+QFndQo/glihDlVq2w2esa3HLRotggjZ4yDc4HyrrrAfvtMv1uwETfAYvj7S06/ujEKRPOSIiIiIiIgqPgbfBpIImWjBqh2qO+IWe4WWZpiQHV4yBFcIHSxKZZX77B4ufwHFLU80u9LQ14PkVG3DIq5lkoL7oksuVWzRRy9i6s1TUQ+tLOOU4GEEFFqlmtLK55POW+hPr2dygBiIoxJQ51qw3PaAndDRqQUBzs1mtfFpwSrCtvxEIlGV/VTYpNZf/7FG8s+uANl9/xp4Doz+7EH2r+c14DFu+sKLVZdC2hNZM9KCtuWYPjjQfxOqN+/B0RrLrIqi9X2aPAbHde/F0s7VpZ1ebWNbuM+JRLmbPsWW9idfWbdyJ1WIdj5y1r6M+gmiq4FZZqd5ctMbhM7pcg1s34mZtH+/DOX1CSAGCl2eP4en1elAwcNNWIiIiIiIiCoWBt0FkBE1Ov2LK9lLBOPM01+BKoGCWE5VZ5mtE1C58fUH8V7gE962qQCQpENHl0MebiVGuQAMryOavarnC1CqZsSWz3UQ9OASrItVVWnBJ9nfn1kdZz3E5WIMK5BlUQM8IdrqxLy+RqYYyLNj8Ah7b4/BnZJl5SWSteQfPkvnMeAxdvrAimDdL+zTs3+XRN5slSJWG4p9ithbEakezWz20fSZqCSia9VNRa1aJ4FhxBJXlc7F2VS22b63VBiHQ+0RLEdzqODwogayu7m/UIyIiIiIiIhqqGHgbRE6jUU7V+i2zTtPf5xBc8d3M0I1T1pi7Uzs24FBHHLmlK1GjBZoasKi6ImX/ZZJTuVzZAlG93XGgoMqU7QZE5sxOClYZ9Xn6eLAAVuKzPPq5cwx+qpFI06XXTZi+1fxlPIYuX2gqmyt0M8qAblb9qhXOwrY9+qidyX/z9Qw8B1EZbJOjfW5ejvq6WSiT/bRZ+qTz1t39tXpEREREREREZMXA26AxsqXMHepH9X7LLNPU+xyCK2kHS1TgyFcWmqYLp3aswbMbN+BQq+rXTQ4eoAXgPJpSOpbLnV6u/iBdT3c3UFiI3PgBvKZGbk0OWvpchkOwMnXAzjmzzKh/2aw10a+by5/7iLNqvcM0F/aZ8Ri2fKOC7BtOBtu0Kjqj9Q8n+2lbp/pq05uaDk3RohvUIyIiIiIiIhqqGHgbLEbQxNKhvspgMk/zCK64ZsL5ZA9w+Xa2C6eaZb9uD2kDCJyOywCc04AFBodyuTIPrKBPkf3ene6IIZZofmsEq/w0kTUzBogIGqz0zizz7L8tpWBZhxZpZzwa/GXOBee/4/+0fNEn9hah47BpYAOXv/Xmpq8lWFunjyyqDf6w/qDWP5zsp60rU81gXX2NL7TuBnMxSZ8QUh++CHr8EhERERER0YBh4G2wOAVNVAaaZZprcMU9E84vPXDnJwutAotkv27qmcXZo3j1Fdl7ViFy3frBMoKHvjgEgc424dUdDXgnEWB0ClYZfcGV4RaXEUQj1Y+rzKYDOJ4UrHRb/2j/wAS24JiWiSfkzprr2tw2Uh71borrtM19Mprv+mtaG7x8SYpVk8w99dhe7VWqTryrZYrlYumjc8USXBRH3F8zSxWcOvspTsggVmlZ8qilfsTPiH3LqeQRTFCPMq8H57X9NWxw0uhHL0hz3pL+7beqRE0jIiIiIiKibGLgbZA4NRP1O03js5mhO6NpZhnuNDUTjZRXYKotEKANWiD7ddvagEX2QFJxBRapLLKUSqswT8xviIh5562qwVT1XKPK5dUfWeI9tmDVqfdkABCYUqevZ4K2nAbULNaibojtMg1mIWh9yAlT6tZYyh4pr8GirVuwQGsSnLw8tB3Hafl/4RJRN6Ic5nmNZdZtwRyXQKCZDN4l5i+OYqp5/R35b74bunw2lVWqSaZQtHiBZ5DrSEu7noUm+13buhC15ea9JoJo+UJs37wc2zwDQCorDJNRVV3SH6QrLkGlZdk92PuKPmrp0s21WCvfa3k9gspqsbw9C1GppliIdXzC/PnG+m1djqWqbrLhyHsuI636YQwo0fEZjuhTUtJGmjW2X9ggJREREREREQVyzczb7/iDejzkTJoUxblzfrJ5hp+pq17AgtI4YhvX4B0VONGnxXBoRYNqkhnFvK1bxM2yeZpSvgaP1aUOeMn+x9xG+IxUG8EoK6d53N6b0NGojZjpHCwzyqGe2liWp8rlZ72d3qPXoXqSxFrf/SqwaI/K+rKLi7pvL8KCxXCeN8V26BP18pprvUguy5YjkK43Bwi96zAhaT4pjfKZVK4yRvmU+rB/417s9Qr6Fc/F9s2z9IEPHKX+jGh1LbYtdsiXlM1Kd3SqJzrX9xriZ7B/10HL8jznEe/f2Q7UL56M2O6deNq2rxnzdrfuCzmqaQnWykEf4u1YZ2kCm5qxbKf1cmMva/j1JiIiIiIiIr+Y8TYonLKVnDrZd+97y8iE8+bdf1tP86+1UUr7xXG6tdGhGaZ8rxxUoREx8f4+NU3qi4t5dm/wCLpJXXhn/QZtXrM+GfTZaA2e+el3LnlghX6ndjyEpt0x8dlqgiTXUZSraYVbYOkoXlVlSzDKtb5B1b1LZllbg+rnzla2jgNa2Z73rBdJLvuAmF89FWS9xF6xZ/ypfSEVxwzINMpnIrPYYuojulsPeQfdpLPHsHrFPuxsPQOVdKf0obvjMNatSBG4E7qa92KdnF8918gA2nvJI4nK99ZsPIz9HarPN0O8Txs0Yd16a9BN0j5/t2395OerPt+OWD4o0zrR3CqOJi3jLkjWWwmqZQAt3o5mn0E3qatZ7FeW7UBERERERETZxow3IqJBE0GtbNJa6CODUNEzD/2/P0n5QjTVTWbGGxERERER0QBgxhsR0aDpwd5dsj882T+dSx90JrK5qGzu6yvj0EW06Abxbx9OHGfQjYiIiIiIKNsYeCMiGkyySa5s7orJqN/qHnxL9NHWcTh8plrxXDyhfUYsdOCOiIiIiIiI/GPgjYhosLUdxOqNaiRYj9FGZd949kEl/IkgKkd2lYNdyEEjQn0GERERERERBcU+3oiIRjx9BNXCjsN4ZkdnoBFUiYiIiIiIKDwG3oiIiIiIiIiIiLKATU2JiIiIiIiIiIiygIE3IiIiIiIiIiKiLGDgjYiIiIiIiIiIKAsYeCMiIiIiIiIiIsoCBt6IiIiIiIiIiIiygIE3IiIiIiIiIiKiLGDgjYiIiIiIiIiIKAsYeCMaaornYvvWhahUT4mIiIiIiFzx/mFEi1bXYvuqEvWMhqNrZt5+xx/U4yFn0qQozp3rUs9GmeIS1FaVYXZpLorUpO6Odjyz4xiGX41EULt1OZYWnsHOFQdxRE0lB+ULsb1uMorioq52ibo6q6anJQe1y3Ox9IbfY/9LX2Nvr5pMWXId1v71j1H2zXdYt+9ygOM1yHzGNhXnhfd/h9XHf1DTR5G8cdj+4NjE+TEhcL0PVQN83GatPnn+GTzD8TzB/SWzwn4f0bA1sQLX31+F62YWiqNJd/WDA7jU2ISr6vloM2ZlA8aL+rj6QSN6G4+qqSNMVu4faCiRgbdti3OBjsOo2dGppg6UCCqrZ6NqltjHCtUk8L4+KGa8DUXyF4vN87HUFHSTikpnYVuGf8mQB3HTnmz/OnIjbpYHabwP5/QJvujrVm/7k9H+uagsVm/KkoGpFxu53eWXpjyRrXf70pQ3JTeh6a/F3/JxiKqp+NmP9Wnib+3P1LSMUss1L9OXsPMNYz+7DmXiv+6uH4Ld5ASZL+86zBY301LRHdfx102iATHMzmc8T1DY76NRbbCuszJgYg3yNqzEOFPQTcqZuQR5m9ZgjHo+HOVUNSC/MUQZRJ3I+pBy8idY6mXE8HX/QMNdV/NerGvtA0rnY3t1RE0dGJWrlqN+sTnoRmEw8DbkRFD76Cwt4NbdcRjrVuxEjfpbt/sMYu0nMhhZjmDerNzAAbHAim+Edpxe+DrQhd+kIrFuSXK1AGT95vosnnQGqF4sjO3eh/0bff568M1Vh/r8Pb74Wj2kQVE5+Trx7+9x4rNgvy0Hmq/3B5z4Rn/Y/f4Po/PXpt7LWP33X6Em8fc7xNRLFALrc+TheWLUC/t9RMqwus6K4vpHlmiBJS2za+VDuKj+evfEcOX9l3BFf+MwFMWYO8SdxMXzwbP2Pj+GHy7KB3FRB8dGYNZfiPsHGrZk8G1nB1C0eAFqs5yE0i+CCQX6o9jufYm4RA2z3QJj4G2oKf4pZssoVcdhrN7RafnC72o7iKebe9SzTFCZaAEDYkFF58hfYcTB+l6QtFjjIJdfJP3Bx5qN+8QJp097R9Hi5VkKvg1MvZhFqxdgqVhmd+sh7OUvVcPYdbhL/jzedTlgE6mg813F3n16gGRUNjMlIh94nhjdwn4f0bA0cS6uyxf/q+aU5gDT1XcbcKlloK5os2EirpVlCxN4E1fy326SAcg1w7wOnPH+YfQ5suMwYsjF0kfnDmz2fbwdzW2ZjEOMPgy8DTHhglQhld+iNUHI9rL0zLU+fPGF/twfo3nqGbxj/iI52yNOOCrVVihaPDvzzWcGqF76laBattkXJ7RnUgZWr+K8ymCw+Pr36FYPs+Na3KyaLAUTdr5BkDcOa1Xzku1zwjVGiM4Zp+87Z4Ld5Iadj4gG0jA6n9Gox++VsAbrOis9OWWztWy3K+0jsA+zu+ZoTUxHZNnSEuT+gUaOTjTL++DCWaguV5NoWODgCoOuBGu3lqGs0KlZpZl7B4bR8oV44n5zu+s+xFpjaG62Zsz5X5bksbziEszzPfCDfWAF1TmjbCeu3iGb1D5jy+7T+7mbhSLXDiSNz5UZcXsdfuURy1m1AFW2dWxpOYYjNy9EU90NpvkyUS9Blmcjtl9T3WR0t+7Dah9fnJV/ehPqo+Lz3+/D6uPqt79Ex+g/YOff/862frK/EnNn1TniM36Mqui1/eva9R2e+Wdbx8s/+zG2l16HIj83ml2/Q80/q4v7sPMZ6wm9E2jZP1H1vxc3Djdcq7/8ze8R6/gdnv6t2++dolxzxopymZctLpS7LuOZ2A/oSvGLv1GvujAdexv17LQNvKSaz3hdPbWx7AeOwtdL9GfjUF06VmwDNcGYT2yz5GPduv265HL97Ge2+YJvd0OITsTFsmrLxmG2eR2/+QEnOr7DXs/l5Yi6GYsnSnNEnar19KwbxWV5Lf8itnvSdjC2e8Dj1iTY9rMLWp9GnfTvZ3L9WmJim5bJY8vjmApUL7ronBux7Q70f6bTZ4jzi7+yegh5PjPOJ7HXvxL7rjbJgdOxH/Z4MD5LPbVJfZ6Qwu3X4fazgd1f0pP9etH3F7kffIcJ4jhfKsom3x97/WuxrcW2TZqmzebBad8yMa4ZXI9vY3637ZDG9+2AHu/h1jP4ddZgqMD4TVUYk5+4+HcRw6WVDf3NTLV+4JYg54NGXHQcaCCK6zdtwbh823zG9IvGfFGMqXoQ4+4rE7Wsk01cL9my7cxyJlZgjK+BH/yWTbKt511rkL9ChpxtLh5A7yYfA0xMFOW6/3FrP3kXY7h88CV8+67T0Z5+vYQW8P5B75xfHEfG/YjjQH4O92SS03vjZ9DiOZCDU4f8fWIZMTzTIpbhcO+m3duhHevWH9OWWf2o6f4sLu5vXzmEpz2yrqLlc1F9/ywxj5pgLM+pTLbldbncy7kPbBi0fCah6tMk5X1yZlWuqkd9gVFPFBYz3gab7P/MV8DHiQwY1WOb7FDT8t2Ui7LF87Ftqy0FNciyHPs3kyckcdJ2G/hhT61De3PTwAryJLFHdc6ov6gpKp2PJ+xNRm/WP7+7260jjR6cvyD/z8XNN2sT+hnLcVjH+s21WHvnZPHsG5w3Tmzp1kvQ5dlUaq/34cRxf79WnRM3XlK8z/QV3nsVcfm/eM2zX7obxc20uJiuN12sSkXRsdjm0GG4r5tNB2Hn04gbm+o/FRfZD4qb/sRNjiAel92bi6Y/lX3W2Kly3WG/QRbljP5YfNaNWBsyi803cSOgdWTeFbAvpbDz+RK2XuRN103Ydq/5plFS8/31jajNU5PsxHaaJMoUZD/ThNruYckb2RvRJJYlb2Yt63jDdVgqlufaebYq27Z7ZZ2a1jNF3cgbR7fl1T+YIssy4HGb1vYLRb9J1+tETRLk+tWLfazKsg5WadWL4voZ4i8TF4hhzmdHYt9p2TFlpR4DMXgd+wN6PAih9uuw+9ng7i+BDHC9VIllybLpxLYW+0/tn9qm3fvj1Jn+XvtW2tT5KMT37cAe7+HXM63rrIEycQJyfAWmbIr0AQauxj/XnydxadapmrJq88ngXeMWjDcFl6ScmSsxvsrpjBfVRhZ1HfihsQHXT1QTpCBls61nTqF5r+h31Uf/bjl3rRHrKMplW0fkl2Hcii3IcypbWvWSnqD3D2baIHJO93Piz/696frewskefW7Le1SnDvnFZ4j7vm3y/situyBxT1at7jcTQTdJPC6rW46mVSVqgpkMosl7YnPQTVLLc7xHVcTnTipW6+t0f2u/n9aEL1+4+rQ5+ylOyBNS6S0DN3CSrCf1kMJhxtuQIg7iPeIkE/cTUVbvFSdcLbvtuCmyLqPoj4oDWpwIYrt34uk2Nd0iyLIkI8NMPhbL3H1Ia+etz6ci/vLkY/88FZGXASt5wFqHuZaBPHmSEw9tEXstsi6mu6+/fuKSwypb32PUiyDWZeeuY4lfDrTMQG3UH8G13EHrJd3lGfXqnmGYRI6sJW4CrJkU+o1Mf7aRmXotceH5e+x//XeJjJ6o+Dx5UyG5Z2eIC9ig2USaIPNZ19PIftB/AZe/Wv9YXEDrNx/29ZQX4tvka9/8gJ2WX837syrQlSLjQzY1/ff6jZK/7BArfR1Mv8j7lN5813qua9h6ScynZVeYsmvEzVztvxc3PNo2sv/qH3Y/C7/drQLsa+oY0rMsvhPLMspvXp5TVoNahnwo5t1vyYyT845FlbjJi9vXUy1Pq8/3L4vzdX9WhqyXJ8RrRbK+LPtA+OM23Paz81+f/dmi1uVFxfKqxfL04IND5kyoetEZZYx1/YCyqPgMbR+3bsto3tWUma7BBDsPpsp601/33u7hjwedn/NE2P067H42GPtLOANXL+Y60dffvB8kT0u17fV18PheSSPjLVE+7ZgTZUi8luL7doCP99DrKal1tdazqhPH66zBVoHxjSsxxkdWlxwdNO++QlzZ8xAuvasmmrllxKlMsqsXxd1+fiFyLsZw6bmXcOVzWRMysCYDVuJhUiadkUEnH8fFcn+Ny+92qXU0ZYe5rrv/sjlS6+1aXoMpU86aoRYVdfagqDP5WhyXt6zBt+aYZeh6SVfw+4fEfVPHGZSVThbFkfdkJ8R9ixG4iyBaLO7tzIkCKqtOu/eztabqv89Jbn1kLEtfhjmLSyyjfLbWUgvt9kw9872m+P4zWg5p88p7zQWol58p2O8PE8tT96iJrDjTPXFyqyXr8uS8+8W8e9W8snwyuUVyXV6g8gkh69OJvg6mDMYs0u/L/e9r5IwZb0NJgNE/K1fJYI84AMTB9rQ8aM0H3NlO7N3Vrv3aXljkEjUPONKo0XmnFkBaIZaZCLpJPTjSfBCrNx7WAk/mzzP6rCuSv1i07kONZZhrMV+Lvp5WxsAKZ/CuS9BN0vuOs9LrRZCBvPX9QTBJDk6xevcZ/YlbuQPWS9rLM2cE6hN8chlV6xunEbhM5AXo34uL2sTNg1jP3/4OO9VMhbmW3/gGjXaT+M/GzaZ0FUeOf4117+u/QpdpI7Ulkzep/fNIoj5E+Vbvk52Lp7hc672MpxMdkQe9tBM3jOoC/x3bDYO3sPMFE6hexA3ZE3Kd1A1Q4qZR6v0Be/eJCwKt/5vrUOWWnRByPwu73QMT67LuJVH2ffJmzFx+fXn6euZggi0rxegzCdrNan8QTCfnFXX6Up/thljcrMkbPEFrIma62ZS07fC6bJ54LWbfkoH6zMT2C0IsT/8hP3l5XWJ5TyeWZ5eBehHkTbjcb2octmVmg27BJbLeHPdb1fG9x7E/UMdDqP067H42yPtLEANaL0r3+2I52va+ine69O1snubY91iSIfi9MojHe/jrgpDXWYNBZojJ/30MPpBTqF104vduHda5ZMQZmWRaJtprG3BxU4MKLklduPLKAcdl51Q9rgfdZOBMDnCQCLpJYr6WBvRuacSl51yCagHK5kRfb4/yaiowXgXdZIDOOjiFWF+5jq/J9KJCXFemncASwtZL+sLeP4jjqFRvnqrfk5kDQ7agmwxMyQCSENut7je1Z7r++5xczJ7jfL/Z3S4De+qJRixDzrd+p2fzWK357A7zfZW81+zv47vsTlPWW/FcPKGCbjIIZWmKKu+J1+/Dfi1ddTKq3LLJZABN3N8aQTdJrqccQVRyu58OVr706zOZQ8uvjIogWr0QVTJJJsS+RlYMvA0lKZtXGkpwlzwAxAlEpqQ27XH4k+2+tfe6UMvyN4CA6rxTBvq8ssDEyc168ukPjslfCjxPsJYyB/kyMQ3aIE68+omhHetStHd3LXeQesnE8sIQF4w18ibcdiGpjV73z3r/Qs7EjYD81Vc9MzOaVQwNv8eJz5wvU7o++0EP1N6QA/OljzG96I4fY+2c6xB1bMaTRT+7TrtB6+6y3kykFHY+n0LVy42q+U6X20h4Yl/r0PezInETZL0ElcLuZ8G3ezoSN2l5Oaj82Tis/dMbsX35jdrgGnrmybW4+UbtHUoO5mnNvWT5PLIdLDeDQp5q8iVu3pvdMlR++wNi4r+M1Gfa2y+glMtzkXa9KF3iBjpwoHyA9P6AEzJQEh2X3LQw5bE/UMdDyP067H422PuLbwNcL4qlaaNinubru3oofq8MwvGe1nVB6OusQZKy+aghihwtCHYCV1zeOmaWHoC6GrfuPXrATgamNqDXY3RQ6zpUYNx9cr4YLnllq31+1HV9jLKFG1ghijF3iOV7lFfKqarSBm+4+toG16y4q7ET2vrnFJrbxIatl0HWcdjzniyh+KeYrd2PydEs9UlJ2j7Tj9tZP7Uct13Hz+jH3+IFWFtdgqhbM09H7s1njc9FwY39y1P3buiIuWR+9WDvK3oihH09dX3YL7PW1DOzc916oM8uVPnSqE8nXd2+fokJR+tGScYUlmOb1qLtjKgjPy3ByAsDb0OI77b6atTNdBjL8jXSqJEF1vFZwPTS1JlrRkZcvNtUZl9ZZ0bwsb/vNOOzuts/dZ0vqnX04V7uIPWSieVRSDdca+1noPcyVr/0HWLfXIsycZG97UF9dNKm5bIPl4AX3CFUapkn7jfKbsLO51uIeomq7Klurxs8Y3Q3+3bItgwuT3Z8ro1i+2Au6mVfTLK/IEsfTnbGiJZXcT5IwMC4Eb9hLLbJunf8U83ZMmCgt5+v5TnJUL0EXu6AMoIs9iweI/vnB7SkEzTMyPEQbr8Ou58N9v7i38DWSyYNxe+VQTneB/m6YCDpwbI4foiluC1W/ZG5Z4+pwFxShpgxPYYfHAcYEGc1NaqqJWBnZKt9cNw0SEMwRtm8M9bcuPRXZ2NkAaasvyQh62WQpU7wUIyAVqHsx9uW4JH4Uy1/7M4ew+qN7YjFVb/jRqLIVtn3WdBAnANTf2P6vVaKcn3Rp593M9VPWZjypVOfg0zW3Xn9IaWBgbchwwhSuXfCbzBOMDKLrGaF95/zLxr+l6VRJwrfJ+qE1JlrekacLTDlZ3lG8NEUDDQ+yz1wGcG8WfI9buUOVi/pL48yymgq+lIfdr7/g7jYFjc34sbGuODe/qfiQlu9NbNUk7GgGRyh5wto0OplCPuZKLvR8fk3ok7e/x12ivpZJ/5kU2OjCSdR2n77nda0sOiOsf0dIBvZP13Z6PieRjd+r1iMiu8/I/jTjaupkqp8D6xgzxBLHcBybMLqOxPPTYCyOblrjpbJ5p0t53MZjmUJWS+jxdljeHq9uB/duA87W88gJu4Huwv7A1XbV5UM7+NvkMtnxAOyQgYWtViCLFufPvDDo06DTFAQDLwNGcHb6rv235aSWlbgDLaAUmauOQe6Umf+lWCt0dlloCacqeo40/XiZ5t+jS+0biMy9AtMtoX9hT7sfHbGr+bi4tm1Tnv1vnee3vc1Vv+9vOD+nbjYFtdM0R/jiUz0aWVj9AMUOxOs+UnY+UILWC+e2V9+tkMmZXR512Gt6uB7/+t6X0GyvyHZX1CXvdmYo+S+3zwZ2S1dsumSqHevvwx22D3Q2887W9DBINVLRgQ6nxl9dV2Hu9RIudFbVCfysZDHflaOv4D7tRJ2Pxs++8vA1ku6huz3ymAf7wN8XTCw/GV1SUZ/ZG7ZVzkqUJX0WW7TE9IMkLlSZQuZMeevfzc/orh+oZ6HZKm7QasXaQDuH4wsMdmPtS2xI+nPsysivS/wp9fv1YM5Gw8jJtZdjv75hJ8RPM2MrDGHe6uiIkv/IFYe86XNb/kyVZ8W2W5Vpfetp/V1N1zuVYcwBt6GigCd+httur3af0fLI+5RaWNZfqkTRdHi2e5DFhcnR/WNppjuwTGnwFSqrDM5Ak3/gAbJI566dTIpR1BV87nVcdB60aSxPE0Pzl+Q/9+ACemmXQ+IcDchQeez9q1l6O+c2d53TfRnHr9a9/6Ap40+dbxuhvJU08O/vgnbfV+IG/0A/YB33fqtcRR2vmDC1Eui/yinfqk07tshXUG3uyNRFl8XBrLjcUtn6Qaxr6pHVmJbaQu/Fkv//Tj3es2z9bsl6tm1n68syPj2S1Gf/cu7zvn7Ic9osmczwPWSJNTxbgh2Pus6flnrs6WsVO436tj30fF9Ro6HlMLt12H3s0HfX3xv94Gtl8wI8L3SexVaX+Mux3d0jjH6arJQ37eDcLxn5LogtBKs3ao3HZNZL1mVoYEVtNFOjVE9bRlqRsDOPXPMJfjXrT/Pue9BPUDlZGKFvv5OjLKFpJc3VdCrC1cvyv/LcN1d2oQk5gEiLpv6gAtdLxkxAPcPZz/FCXmiKC1DbcBlRMs9sr3OduJpo881l2CZ272VMTiBuZufRL9vruvpPF86QpUvjfpMxlZVwxEDb0NE6iCViep4UWsjvnUuKk0Hb1QOm7yqFtvqlqO6XE10Iw/88v5IvD6v+Dz1PME4UcjBHLYuFMszRe/F40qxvKbNyb9aODYjNVPNRa0nQZcsMbmc6oXYvkcN++wwoIHRAWZZnVxH7aEmWj5XXAAtR73WJ5xYXqomsz7rJVPLO/Je0BFsBoP1JqTSfOGsdU7vdmkUZr5rUXav6oNFTZFNs7Rh/LUbAVu/SHIUuXt/jG1/faPebER8rllUzKtnOIlt8Y17/zCVZarpoSA7Y/Z1cxC2ydhANDULWy+9l6H3Dyy22YNiO5i3kdd2SFvA7Z7k9/hC+01CjhZo/QzLfme4YSyeML9PXN5Hf/ZjbJfLc7maMkap1PopWi72Ecv+q+Z/MBfbRH336+/nS6vPpL6FxHEgbnK3//WP3X/YCCJj289nfRo31OJ99aJOzK/p9eHWb9MA14tNqOM91PlM+gHNciTSG67DPFFOeeynDrqkezz4F2q/DrufDfL+EmS7D2i9ZIL4fP/fK/3Hd738ftCmCWI/rv3TG7FNG5nVQejv2wE+3jN0XRBWtLoMZeqX3KKM3GS7M/oQ8z/4QCHG3W8Kdk2swPhNLyDvvkJc+UC72E/KiEvZXFJlfl19/5g1wPT5MfygglrjN63BmImmL1fxeMzKBuRvWInx+lDH7mZW4XqtDbUuR6zz9Str3IN5GiPbrAzjTJ+fc1eFWA/1RLnSrt1VYcyKBow3LUfWzfViHWXdyPJfto28GrpeMiT79w/GoATivLXZqe8y495M3AepKRo5ymjdfGzbU6s3tzTfNwryvspoueR8j5Qr7q3U8tQUmeBRK+6ttHtAnEGLuSuls8fQoo0+qtbTdA/nOV9YocsXsj6dGAM1ZLv1GmXUNTNvv+MP6vGQM2lSFOfOeV+ajhSVq+pRX6oPg+w8IotN+UI0qYPaSXfHYTyzwzpMcT+ZNWachJLJvuOSMsnk6CYeI6V2d7SL5ZnTYo1lyOGZnUeKiVbXYtviXOvyUixHSl6WQZzo3DqllMNEt9+A+sXwqOOg9ZLu8gzqc2Qw0XdqcRDiQlq72P899r9kH6VLF52jX2jLYfpdRwwTF7LbHxzrsm1+wM6/dx550f98xnqKbSxuCJy7LnAug+wov7q0/4bK0TffYZ1HE5bKPzVGs5Tc68pMrzexjX281yzsfGZ+tln4eunfFs6c6ifsfhZ+u9sZn59ENm8yjUTn+j7pG7FPisqov+M6xF7/Ck/bM0c892fJZR/1WqYklitHL+2fL53jNsz2S+a3Pj3rRPah9811KItmql507mX3J8zxrgl7HoS40U90Hu/1vswdD5Lvegq1X4fczwZhfzEE3u4DVC/GepnPOUZZU00z6K8F+F752Y/RpIJPdnJ/abkhV6xT8rqm830bdvsZ8wU53jNxXRCWcX1r6G7d528UyRDGrHwB42fGcXnLGnybqjnjXWuQr7LarPT5r5TJIBNsnxXF9Zu2YFx+DJdWNjg2+dSy5WTgbs9DyaOCTqxB3oYl4qhwdvWDA7jU6DbiqbFs9dTGcXkmxnrZOc2n16N6ksSpftOsl4wIdv9g7JdB90f7/pxEG/HyoOVeRyYhVN8/KxGAdpS03v33Yd1x8f3nOK/bvbL3PZzzfMY87vffbnUWrny6MPVpZ3xG8r1pNqh6QrbuU0cPZrwNCQEHO5DaDqo25NZhjmVQaufGnVjtGnSTerB3/T7s77DNK4NFYl7HA1jrZHEfdop5LD/syJPDbnEySgqEpe7fzGtghSTic/rL5nbQd+JpUSeWcon5YmL91q0/qNbDq46D1ku6yzN0orlVfEbhrOB9HQykXjlCmOwXxfrrcLe8UH79O5ebSCHwfL/HiX/5Cute/0G78TR0d32HnS43FF2/1TtQXic+z3k5fSkvrmV2g+zzRep+3/3Grd91qJY3EOLzUzUZswo7X3Dh6+Uq9ibmU5M0vxfb4XdY9/c+b+wCCb7d7bqOf41176umXgZZzjPWsmvvsy1He5/q8+2I9RRgJffnv9c76rbMn6Ju5DJlv0L7u1RfRwaxXeTgDuvEcjNXp5nZfn7r0zjGZdn69Zer2bbvmQ1svfQLfrwrYc+DMLLlBJ8ZSekeD4GE2q9D7meDuL8E3u4DWS9pCfG98luxLg7nwZ0vfaUFt865bId0vm8H8njPxHVBWF3NMa2Pp+wL2IfYuw24pLLadHFcea0RvSv1oJJz08w0BxD4vEl8/gZtuZb5L8Zwec8G9LoG3aQufLtpAy5b1lkcYWLeS1tSB7Outvzasbzm5qKGK40PoXdPTDU7VS5a68cqzXrJiIG5f+hq3qvdc8r7HUtR5D1P62HtnsceJOpq0wceWLdbjvyZfF8l7x3dgzh9OLFLzntGC8AZ9PtAt2QGeQ9nLE9N0sj7R7GOK1IlQQSTTvnC1KdVCapl4C7ejuasB90ok5jxRjQkpP7VZeRLneEzpKhsgcAZN2HnswmTATA0DbPtThSSntWUaj/n8UAhZOh7hTJMtU7JZsYbjXYj6f6B90J+BG4llzZmvGUKM96IhoQe7N3Vjm6t3b+Ptv006ConyyY6v8eJz4Ld5ISdz27SDR7NdYhoaMkbB62boSAZSUQ+Zep7hTIrqrUV9xqlnyhdvH8YTWQTU9mHeHfroYEPTBbOQrW5/zwKjIE3oqFCNueVadXGIBZqMg1F10Hrf7frcsCMlBDzyQ65f2YdOU926q33U8QbLaKhTvY1ZfQTFuvITtM2Gs3Cfh9RVskO2GVzsI4YM3cou3j/MCok+obrODzAGbQ9eKddb05bVrdcG61Z/+O+FhQDb0RDSdtBrN4of7kSsjgKFqUnOmec1kl67Iypg3kfwswXvWUclt6bi21/fROa1N82YzQ23mgRDU2yU/7E8aoH3WT/XkmDdRClKez3EWVLRNwgL9QHCpN9BNtG4CfKCt4/jAqyv7qaQTinyH7p1rVa+9yj4NjHGxENEezbyFFeDirLfoyq6LX9A4/Ijqg75E38SMh243anEcg8YmSg45XHA9Hwpo80WShukJ/xHOiMiKzYxxuNbAy8ERERERERERERZQGbmhIREREREREREWUBA2+DSGb0jWQjvXxERERERERERF4YeCMiIiIiIiIiIsoCBt6IiIiIiIiIiIiygIE3IiIiIiIiIiKiLGDgjYiIiIiIiIiIKAsYeCMiIiIiIiIiIsoCBt6IRrviudi+dSEq1VMaWaLVtdi+qkQ9IyIiIiIiooHEwBtRho1Z2YD8xheQt7JCTQlgYgWuF/PnifnlZ+ifU4Mc9XLGlS/E9s2zUCQfF2tTaAQqKp2PpkEJvkVQWS32sa31aNpj/DHIS0REREREowcDb0SZNLEG42YWag9z8icEC5iJefM2rNTmN8+XM3MJ8jatwRj1PGNkplvdZBThDHauP4gjZ9V0GlG6mvdiXWsfUDof26sjaurAqFy1HPWLxT6mHxJERERERESjDgNvRJn0+TH8cFE+iOPK+8dwVZvoRxTXP7JEC7hd/aARvSsfwkX117snJj7rJVzR35ghEdQ+KjPd+rB/40EcUVNpZJLBt50dQNHiBagdsMzGCCYU6I9iu/ehZsVO9cf9jYiIiIiIRg8G3ogyqgvfbpIBszW41NKlpvkwcS6uyxf/y6Bb41FLwO7quw3BPsuHaPUCLC0EulsPYS8z3UaFIzsOI4ZcLH10LqJq2oCIt6O5rUc9ISIiIiIiGl0YeCMaAnLKZmvZblfaj+oTsqoE1YtztYDIM80MiIwenWiWTU4LZ6G6XE0iIiIiIiKirLpm5u13/EE9HnImTYri3LnMZvoMJSzfCHDXGuSvKFNPTC4eQO+mJo+mphUYv6kKY/JTdX4Vw6WVDZltZlq+EE11k9Hdug+rfQbeItUNqFks1mbjGrwjM+SKK7Do0SpMKVTrH4/h0K4GnHLInouUr8F995chN1HUOE63tuB481G4LT1SXoM598/u/3wxT1/HCbzX0uS4DNlUd97WLSi70IhndxxV8y8R8+uv9on1e89l/TTFUUytehx3lhYiV02SZYq98hLeaXPah63Lk8+nVj+IOxeLcupvEOvbiNfEa05lDF6+fmHqM0H26ycH0+g4jJodnWpi9lSuqkd9QTvWrT+GEX4mICIiIiIicsSMN6I05BRq44EmuZqqf7eJE5CTMuiWHZV3Thb/9uHEcf/Zbnla7/jd+PqsHoR7bPNKU9BIkA+TAkYVWLT1BdTUmYNEUiGmLF6Jmq01cOzqv3yNmEcGzcwzFSK3dAkWbG7AonKHhpLFc7UgWx8mYN6qBjW/ek3ILSzT5p3n0L+ZDGQ9vHkLFpiDbpKYp6xuCx6u9lhe9+ficQ0e3iPmNwXdpNzSlbjPad4w5dOErE+zs5/iRFz8X3rLwI0sWpiLSeohERERERHRaMOMt0HE8o1AKgPuyp6HcOldNS2lCoxvXIkxKbPkMiGC2q3LsbTwDHb67uReZXfhAJpemaAFfrRsrpaj6NGCbVFMLQdOWTLDKrBoz0pMMbKxjhvvFYorMO/RlSgrBE7vfgivtqnpGrWsQjHf7l+L14zPjCJS/iDuk0En8ZmJzDtD+Ro8Jl7T6fMeF/NqoUUtO08GCsVjsd56hppims+aoSaWV/0gahbL19yX1xePA4WFyNUy/l7CqbNyfUV9rJKBPPHQvryw5Qtdn8mi1bXYthjYv3Fv1vv30zLeSoPsa0RERERERCMLM96IMkjPgIvj9936c19k9pv8/+L5LAfdpBtxswxAxftwTp/gw0SVYTUb99UV4fTuDXheBqgSQZsuW9ANmLpKBoliOLRxDV6VTSDNAZ6zR/HOrgPoEw9zi1yyu+IntMBZvy70tDXg+RUbtM+0BqWASJHKPIwfQNMKsUwj6CaJ5b2qloeCCaassAosUkE3GbDSyqQ9k8T8zQ1oapXpYYWYMse6nsbycmXWWusGPLteNmM11lfUR4tanpuA5Uu7PpPk4uab1cOsiCBavRBVMvgYaF8jIiIiIiIaWRh4I8qYKMbcUQhcPIErn6tJfhTpgber8SAzDaDiCXoTysJC9O3Wg1reKnCLDLhANu98AY/tcfjbvMTSLLNfF76+IP4rXIL7VlUgktQ0tMuxDzS9KWwcsV1Nzv2cnT2fFAiLVFdhivi/r3WDa5ZYz/ETKqA1UZ+g6MuTAbsNeL7ZvT60pqgWYcqXTn0m6+r+Rj3KAtmH3J56NO1Zjm2LJ6Mofgb7d7F/NyIiIiIiGr0YeCPKmIm4Nl/8FzBzbcwsvTnjD7EhGp64WQ+8eQWoLMrnaAGtsE7t2IBDHXGtj7QaLdDUgEXVFR79l0VxY4H8X++Dzi8jWHf6eNB6N5YXw2cuQcjInNl6nXUnvx64fGnW52CSiZ/n9YdERERERESjEgNvRJly1xyMEf9daTf36ZVKFDkyWIduXB2iCW9T79QDg34DVEYzTNl889kV3n/O2WJdOLVjDZ7duAGHWmPoMwYP0AJUTk0pVVPYjuM4pU9IZmTtXTif6MPNV7DOCDpaMtfU8uLn0atPSGIE9fq+0J9bBStf+vVpFS26QT3KgrPHsHrFTtSs2IedrX0oKpyM+kfnitomIiIiIiIanRh4I8qQUP27hcySC+9rfKF1W+Z3pMlw2WSS//7GXJztwqlm2e/ZQ3h2YyNOx2WA6vHkkUlVRlhys85+U6v0ppin3wsWFJ13vxp4wZy5ZmSgJYJ4dj7rzG/5lLTr06IPXzgGBTOlB0ea92Jnh3jIUU2JiIiIiGgUY+CNKENyZEf7QTPXBnRgBakH52UfY7gBE1wCPFaps7vserr1yGPurLmuzScj5VGH1yqwSPZ7pp5ZyAESXomJB4XItQ0KYGSEOTXr1JSv0UcY1ZqGalME1dcaynBLuTYhSaT6cW2kUDlgw3FTE9tEBpprEM+tzsKVL3x9Oolg3iwZgvwG5wMGUomIiIiIiCg4Bt6IMsJoMlqGcVX9mUk5d1VgjLVffoucstla4C1Y89T0HHnvjPg3F7Pn+AjVJDXR9KHtOE7L/wuXoGZrDaaaAnyR4grMW9WAmrotmGMLeGmDHch+z7Y2YJE9kCTmW6Syz+yMgQ6m1L2Ahy19pUUxVSzrscTIpQ2Wpqin3pOBLjmfvrwEYx0Xa9GzpAEbvJuRCkYGXvsxy3xhyxe2Ph0V/xSz5ep3fIYj+hQiIiIiIiLKomtm3n7HH9TjIWfSpCjOnfPXr9RwxPKNLDlVDci7Tw8CmV3Z8xAuvaue2IxZ+QLGz4zj8pY1+HbA+ngrwdo981EWb8e69SlGnCxfowWu5MAKfvoPS1DzuenraMRrO44mBfMi1UbAy4WYr8kyXxTztm5BmQyEyWwxl1nd1n/qqhdUNpyTOGIb1+AdS2aYWl5hDIdWWAN5BqMMsk82+2AUwcunhKxPu2h1LbYtzkVs90487WegjLREULt1OZbCx35GREREREQ0QjHjjShDrrb8Gpc+kB2oGeK48lojLrsE3fqz5AZ6YIVONLf2AYWz8ES1d9ZbymacbtoaVL9l5vqQAaIDOLTxITzvEiTqaZaDDjQi1iEDaf36xOec3r3BISilmnVeaMHz6/XRQi3zGctzCRqe2vEQmnbHxOerCZJcVmsjmlbYg25SegMrBC+fErI+rUpQvThXrFo7mrMedCMiIiIiIiKJGW+DiOWjwaOykQr7sH/jXuwdrv19Fdfg4c1LgKAZeaNQ5ap61JcO5PZmxhsREREREREz3ohGpR7s3dWObuRi6eaFqFRTh5vInNlaH3SBM/JGGdnEtL4U6G49NPBB1sJZqC730Z8gERERERHRCMTAG9FodfYYVu8+g25MRv3W4Rl8SznQASX6dUPHYaxuTt0gNXN68E673qC2rG45mvbUq7/hG+glIiIiIiIKioE3otGs7SBWb5SZb4JptMzhIYobC+T/3fh6uDaVHSDdHYdRs6NTPRs4Xc17sa71DLqtXdMRERERERGNGuzjbRCxfETpqMCiPSsxJX4ATeubfAwuQERERERERDSwmPFGRMPUUby64iE8y6AbERERERERDVEMvBEREREREREREWUBA29EIcmmtEREREREREREbhh4IyIiIiIiIiIiygIG3oiIiIiIiIiIiLKAgTciIiIiIiIiIqIsYOCNiIiIiIiIiIgoCxh4IyIiIiIiIiIiygIG3oiIiIiIiIiIiLKAgTciStNMLHtyEzasnI98NcWfsPPRwCjAPSvF9nmyBtPVlOEq/97HRDk2YdkMNYGIiIiIiGiAMPBGRGnJv7cSJejB2y8fxkU1zQ+v+aYvlwEfh7+Vj+FXy2cyUBeSHoDyG0j7CSJ54r/eHnylTximCnDrtIj4vwc9X+pTMiVYfRIRERER0WjEwBsRhZc/H1XlEaDzCN4IFHXzmq9AD/g4yYsgr+QBPLKSwY7gVADKbyAt/yfQNkPvl4ECqkOPEUA8iU8yWpCA9UlERERERKMSA29EFNr0X96NPJzEgX0fqCn+eM6XPx1TtUDJW3juqU3YYvp7bv9b6JXvyZuG8nsL5CPyzQhA+Quk5d82TQu8dX4SbNsOOVkLIAarTyIiIiIiGp0YeCOicGbUYEkJ0Nv2Bj5Sk3xJNd9PIq6BkosfHsZv9p/UHufd9BPtf/Jpxm0Q1e47kHbTTdlpnjng1P7U+1WGCxKwPomIiIiIaHS6Zubtd/xBPR5yJk2K4ty5LvVs5GH5hreRXj5vsuP9R/ELvIXnGoP07ZZ6Ptlv1iPlEXTu34QXP1QTzfLn41d1dyOv82VsScqYK8D05ctQXqKCd0Jv51toe/MwPvpJDTYsjeDt3c8mNW/Vl4n+1/JnYtkDlSjJk8EnofckDrzchI/s882Yj4q7p/W/Dz1ieSf15aWolPwZNagS8+YZKyrm7Ww7gqOvf5ChDCpRhpWmMngS5XtKlE89S2ynPGO6qNd770F5uZ4FJ/WK+m8R9e+2rtkvn5n7dv/qNq/9Kcj+kk59GsLtn0RERERENHwx442IgptxD36RB3S+FWxABT/zpcy0MjLi7GRA7slHscQU1JDySu7GkrrHsOzWaeKZ+FyHBSeWKV7TOsyve8AaYJEfaJ9vRg0eWXq3LRAjlm0sb4ZbU1gZwNkk5jUHpaQISspl/3UZGuVVNrH0FSQSkvopMw2sYNSrKegmyb72qhyb+w5Q+Qye270GFdrACidx0h50C7q/pFWfQhr7JxERERERDV/MeBtELN/wNnoz3mZi2ZMPoET2wRYo283PfPZMKzvjddgymNRny4fi8w+83J9xpmVeySCQfOK4bFMW3lsRLWCkZXO9+QEuam8swPQZwEcfXtDerTPWo0esx4tiPYzXCsTy7lHL63HIXjLWU2V/fWwsQ8ifiXseeMChbJkQcJvJIFHd3VoASRvQwpLxJ7O2ZABJPEzKOhzo8oXd7unsL1LA+kx7eURERERENFwx442IAsm/t1ILrLz9crAAgb/5TJlW+gRFBrTmY5kKuskAxVFT4Gb6chXUkIGgxv6ghnTxw6ZEv3DOHeGrZWIaqpbKJom78BvZhDLxxgu2oJtJ70mxHubXLujLe2oXDjg0GdTX86T22ouyyaX59Ysf4I2X9cEj8iIZHjgi4AADxsAKWoZX2y5Rp0bQTRL18aYa5MJmoMvnZ7tr62krd3r7ixCwPtNeHhERERERDVsMvBGRf/nzUVUeATqPBOuHyu98qsN65N2NR57chA2Jv0dVs07xmsy+MmcFic8ulzPJbCGnUVJNHDvCN4IoeRH07n/WlL3m5QJ6tAjS3ahaPhP5SW0nL1iCK7qZmKYVbhqW1JnLZvqTfddp780w1Tw32MAK4v37N+E3r7vXh3XAggEun8/tru0y5vVMd3+RgtRnJpZHRERERETDFgNvROTb9F/KwMlJHEgRQLDzO19+xK0PrR709p7E2/tV9pWaKhnZWb0nP3LNFtI/16XfOGPUy7ZdgZo/frRvFw509mh9nT2iBZoew7J7Z7r3X2YEFQfBdKP/MF8DexaoDECHftGURJ33mIJyA1w+/9vdup5p7y9CkPrMxPKIiIiIiGj4YuCNiPyZUaP169Xb9oZD32seAsxnzrTa8pT571n8prEJbzhkoxkDI5z62C0zqwC3ah3s9zh2XG8EUdznd3MBH+17Flt278KBNtmkUQ0eoAXgkptSGkGg5LIl/3llmQVnBNKcy5/MrblvP6cBMAa6fP63uzWAmO7+ErQ+018eERERERENZwy8EZEPBbjn7mmQzeVaAgVNgsyXOtMqHK9AUtCglIOLF/DR67Jft03YsvtldPbKANwy3OOS+pbx/ttSUuXv/NhfwDRl/2XedTbw5XOTOoDoLNV8AeszpbDrSUREREREwwEDb0SUUv69y/TRKN8KOqBCkPnSCUBEEPmJemghR+BUHds7BpLCLHMmlsl+3dQzi4sf4MW3ZEf5yetzsadH+z9v2nTX5qj5Mwrcm6qGZQTSfDKaRrr3N+ZcZ4NTvrDbPex8QsD61KWxPCIiIiIiGtYYeCOiFGaiQhsY4eVAfaAFns/oIyxgAOKrr/SAT8nSGkw3RXWMUVBlM1fJOhCAEnB0SkkbnVX267byMSyzB5LyZ2KZzPBz8uHH6JT/y4EjVs63rquY757lj+GRpY+iYoaamGkllbhHrK9BX6ZYD/Xc4NSM1EJtp6Q+ywa4fGG3e1r7i5nP+szY8oiIiIiIaFi6Zubtd/xBPR5yJk2K4ty5LvVs5GH5hreRXj5D/r2P4ZFy4O3dzwYayTTofPr7I1ofYUEDfMueVFlDdnIE1JMRLHFbjxk12LB0mjawQpB+x4x1ddX5sjaCZVKx1fLc9Ir5WpzmS0sB7ln5qJZ56MRa38Z7Rb09ZR3EwuC5nQa0fGG3exr7iyZIfUrpLo+IiIiIiIYzZrwRkbv8+ajSstaOBAsKhJgvZaaVqw/w4u6X8Xannlmk6e1B5/5deK6xSTWHdO6PzGnUSz8uvi4HVdCX2aumSb3Gct2CSx82qX7gTOsq9Ha+hQO7N+E3GQ+6SRfwRuMua/0IcpRYuUxrkCh101vP7TSg5Qu73cPvL7og9SmluzwiIiIiIhrOmPE2iFi+4W00ZLxNX74JS0pOumY/uQk7HxEREREREdFIwow3InI2o0brf6q37Y1gwbOw8xERERERERGNMAy8EZGDAtwjBwnofQstAfo+Cz8fERERERER0cjDwBsRJcm/d5nWeXznW4cD9ckVdj4iIiIiIiKikYh9vA0ilm94Gw19vBERERERERFReMx4IyIiIiIiIiIiygIG3oiIiIiIiIiIiLKAgTciIiIiIiIiIqIsYOCNiIiIiIiIiIgoCxh4IyIiIiIiIiIiygIG3oiIiIiIiIiIiLKAgTciIiIiIiIiIqIsYOCNiIiIiIiIiIgoCxh4IyIiIiIiIiIiyoJr8wsKNqnHQ8748Tfg0qVv1LORh+Ub3kZ6+fybiWVPrkTVz3PQ+d5pXFZTUws7HwVTgHtW/kc89GcF6DvyEb5UU4nCyr/3Maz6i0XI73sDH3OHIpPpyx/DX/1vi3BbwdeI/dtFNXXkGOnlo9Eik9cFxmdNF98J58R3wrdqOqXG6zOi0eSambff8Qf1eMiZNCmKc+e61LORh+Ub3kZ6+fySN+GPlANv734WbwS4D3GaT58W0Z/40fsWnms8jNF2+6PXUw8OPNWEj9Q0dzLA+QBKRmld+RGsPkc7eaPwKH6R1xP4mHeT8rj32HfzZ8xHxd3TUJKn5u/tQedbL+LFDy/oz93ki+Pigcr++YTezrfQ9uZhfOS0oBk12LB0mse6GPVycsjsRwO+X+fPx6/q7kaefDwSzzcDXD6el6x4nsikDF4XGGWWOl/Gln0f6I+HiIE+joItb/Cuz3h+IRp4bGpKROGJG5EqeSHceSTYDXjY+ex6vxzQC5WhoQC3ThN1J24cvlJTPOX/RN0ojsa68iNgfY56P0FE7lC9J/FJhnaom27qv6l15LLvajcOS++23BRDPC5Z+ig2rJyPfDXJTs63oU7c7JjnE/JK7saSusdwj8OM+RH13rxpuNXxg1W9dH48RG5iBmG/vvgRTvXKBz3oPPnRyDvfDGj5eF6y43kigzJ5XfBlD7TDQhwXb785tIJuA38cDZfrM55fiAYDm5oOIpZveGNTU2D64v+AUvnLbeO/BEqRd5vvctdxHD3yhuWv89rpmDVpLDr3b8JvXrS+dnRUNvWZgjv/7FbkffEe/slH+fPnLEK5rL+3/r9sFugoWH2OevkzUFE2CWMzWF9f/pvtuDb++gpQIW4Oek++iViXrflS/nz8RdU0jJVBkP3/RZwbXtHnOfU1ro3eiol5kzCr4Oukc4T+K7+8OdbnaxHz/ZM230lc+8d3ivnGYmI0ufn7ZHEcTRXz9I6NIHLlpMP66PXyvdO6DorB2K+/Rdd7ctsdx8dDog4ybSDLx/OSHc8TmZPR64LLpxHTtsVxdA25PkMG+jgaLtdnPL8QDQZmvBFRODNqsKQE6G17I9gvtwHn03/l7kEPg0a6GbdBVB86P/H3yzLrL4WA9Tnq/SSi/ULf+1X2dygje6S3J7k5WP5t0/T1aLM1F7v4Ad5o3IQDbW/hgD37wsi0FceDbCYr50vccly8gDf27cLbMnUjKVtlJqbJnaT3pJbxlHfTT/TJJon1cVjXQcH9enjj9vON54ngRs11wUAfR8Pl+oznF6JBwT7eBhHLN7yN7j7eVD8lCNovRdD5VP8XSNEfirhQ1vrece1fxLtfFf3XbVN/c/Z+XcSF9IGXxXyJFVaf12ssrwDT770H5eX6RbXUK9alRbzmv27ciHVZae1jxp29fPZyB1/P/Bk1qLpbvN+YQVwkdrYdwdHXM1E2q+DboZ//9UyjPofhfhZu+4nlLF+G8hI9yCYZ/Rp9dZueCSIzUF/8UL2YJdOXb8KSEq+6DLIexrYRNxse8xif29u2C795Xd0cq+0OMa0Fy8Tryf3i6OuauX7vpKR+qcS26+086dK/VDrnCV3g/VPsW4m+ncxS9leU7n7tvn9+9BO5TpHMbIcBLV/62w/5Yjm/tNaL3GZvv/UG3kjVl1koA7QdUhjt54ng290oo15nX2nnGdkUV3+1V8zb5vI9q6+/emJjqQsXYa8n8sW56NZfVmKqbV9r2Wc/DjNwHAWSzvKs2yH49VmQ42+g68VeNhde11RB9+s0r8/S4X//NAt6/lTrPyD3HZJ1efr1iL/zhC5o+XSBr0OUYNdLVgN5n8OMNyIKbsY9+oXpW36CZyZB5zP6v0jVH0rKLByjXyrn/iwSvzqKlZIn/aR+XeS85hXOn46pYpq2PPll/+SjWGL68pPySh5A1b0F6lkaZB34ulgSkspnKnfg9ZQXapvwiLjx7P8ykiIoKX8Aj3j0jRNW4O2gCbie6dTnsNrPQm4/Yznmi11B79eoRmvSJS/MT2Y56CbXX88eca7Liz092v8ld/vcD1VdyqDJUY91Nz7Xkq1ibPeeC+r1aZg2Q3tFKdC3u9q2GSEuBJP6pRLbzuhfatkM2zZP6zyhC7p/JvqzsulN1f9ZOvt1iv1z2a0yUJaZ7TCg5Utz+8kbh1/VJdeLzMr6xdJH8atMfBeZeW4HsX9mcDt4G93niXDb3ehnrgcR7Tui/2ZayhPzOvdhZ6y/M+8svrDXE/LmXdyIi3PRLxz2tUeetK1nBs6DgQzW9VnQ42+g6wUX8MlJeQxEEHE98ApwzwNysJqTOGALlIXar9O8Pgsn4P5pCHP+TOt6MARjeaLe7pFl9H2eENL4fgh1HxD0eilh4O9zmPE2iFi+4W30ZryJE1WoUZhCzCdOpjLjINUvqfLk7PmrtvwScP0lTP2qI7Pw3opoJ2DtV6M3P8BFbSXFF6u4eP7I/AubsV7iC1x20pyn/QLzBj66KN8jv4jlF4546PrLW1gB61CVW15o9K+n8UuR13qq5YgvP+1Xn4+NuhDyZ4qLJXGRIb6k/GcR+BFiO6S9nsHqc/jsZ2HrxZhPEHVy4OX+Xwq1XwTFumjXJoGP/RA861JS9SlXSNRLqqyelNvOoOrcXKf6vMYvsKqOLOvlNC0dRtnE9ttvbiJXILbDPWo7eGXNBNuvdWGOPxtVd37rOPx+LTa58cv5QO6fWS+fIeD2U8uTrBkPYn+59x6x7+o3Oe77S1D924Hnif7lDvh5Iux2N+pMe6KfY46KOtHeomWXiHWUL/pcz9RZfMb+EvT7yLTt7OspjyMj28d1P1PLHYj9UBNweWlfnwmhjr8Bqhe1f7pev7u9HnK/Tu/6LIyw+2fI7WfUV+jvlYBM2yHYeSKd/TPMdYixHfR19H+9ZKxn0PNSepjxRkSB5N9bqZ2o3hYnU+sJ01uY+bz6bjFL/ELi+kOX+JIS/zn/EqZ+BcM0cYKWX9riIkB+0SdW8kLSzaaxXtoviOKiYUujvFgy3iPe/+ZbapSvDJO/Wsr/fY6AZfQnY11P/TWv9Zy+XH4ZiS918UX1oky1Ni9M9o3zsj5fXiRDv6xpgm+HtNczYH0Ol/0sbL3o8wnyQkpcEPXvK2K2D5vwm/0n9eUNxAhsKX+9voA3GnfhQKe8CNV/Bd+wsgbTHX+eVCO4eW07G/Nyzb/AAh/gZKf4r+Q2TJdPJbUfua9rSOLCWl7o9hMXvXI7PCXKnXQRaRJwv9YF3z/t9P01dR2nt1+LYon98zf7nPdPKWVGWkjZLl9CoO0nbh7UzZG8QdC2mfZMEvvL6014rk0cI4hg6m2ZOV/7OU9oeJ7I4nki/HY3rgu0G9+n7H3YfYAX1fcD8n7iI9sjdRZf2O+j/HuX6UENp/WUx5Eo4292v6zd2DsuOtR5MA0Bl5fe9ZkQ9vgbqHr58GPIQ8Cpr8PE/iu2bYslKBd+v07v+iy4sPtn2O2X9vdKQMbygp4n0ts/07gOCXi9FPa8lC4G3ojIv3zV6XDnEfebPich50v5RapRF37ipPuJy2dP19KaxVucAnjGRYj4Muvdr3+5pKKvl7wwEF8KHpl4Gb8RVxcOwTrulespLmB8r6dquiO++JbUbcKGJx3+Er+WZ1Dg7ZCB9QxUn8NlPwtZL+IYLZfzyYsscaHjRquCTO/XDjzrMkFchO17FlvExW2ndoWkN31YNkN/tZ9xMed+c2gwLjb7l5vclO2jT+SFo6kZmXFBn+IHAv8uoEcrz92oWj4T+Ul3v6LcXuUIeJ7QhNg/rVTQwuP4MITar037p8yA8JK57WCW5fKZBdh++g9a4rPEjZjbr/IXP9YD5s43wAH5PE9IA9Fx+2g9T6Sz3fX90+NH0ItfBriBV3VmKrdV2O/pmaiQ14zyxljcvLtuDnGD7HouDHMeTEfA5YW6PsvE8Tdg9fKl+h5LDuAa+6+925nw+3Wa12eBhdw/09h+aX+vBBTqPJHu/hnqOiTM9VIG7h9CYuCNiHyb/kt5IhJfNClOqHbh5jNOjCkughN9srj9emf6Rdbp+8i4GPb4orcyPk/2c+X8pZCtkcv0C4dUgUiDeT21CUkc11ONdjXggm6HDKxnoPocLvtZyHpJfJZHtlDyzWa2pN53LeSvr42b8Nx+eUEeQclSl35HXG8ODQ4ZL8aFoHm7q1/yS26dqT0Ndlz689E+PUtH9tnyiHZh+BiW3SsuKtXrXkKtT+D90864AXc7Pgzh9mv/+2dmt0O/7JbPLMj2M26OTn2c7WNSN/jbwWz0nifCb3ejzsR6eO/I/qhyu+4PYb+njfpM1b+vh2ycl70EW17qfTdb58GBqxcjIGIb/Tff+CH+5aTvmtD7dbrXZ0GF3D/Db7/0v1eCCXeeSHv/DHkdEvh6abDucwQG3ojInxk1Wv8BvW1vBLsQCjuf3y8240Tt+iuPccPk/EuYcRHi/4s+1S+8/RcPmb2wCfpFGG499S9FUe37N2HLU95/Xr+6BRV0O6S/ngHrc5jsZ2HrJfUFr3Gz6fMmNy2py+5ENitoSadZXeLi3bQNHbe7QzMyv/uRb0aWjrigbFOBAtnZr3ZB6VW2cBfMwfdPG3UhmzqLItx+7X//zPR2ULJcvn5Btp/P96Y8d/k36NvBYrSeJ9LZ7qrOvK6rnIKILlLd7If+nk57nw13Hgwv6PIG6zw4sPWiZ31GEEkkpxXAbUAF3+vmtG+k3F+M+nbPiAsk5P4Zfvul+70SVLjzRLr7Z/jrkGDXS4N1nyMx8EZEPogvy7vFCVE28wl0Ego7n+Dzi804gbpe+Bm/bDheRIa4CPH8PClbFzY+vgjNUl48e69npvs18Ba+zsKvZ7D6HG77Wea3X+oLv4xJWXZ3jqMNJpq8RHCTPsGRnpkrdglT8xd9uydfCCZuKPLVdshWvVwUF5Syrxh5Eag1lZMXlMucM3U0Ac8TmvDHn8Gop5QX/dk6fyaCIdnZDgNXvjDbz4v6DhYykwmRCs8TZgN2nkjist3VdYHXdVWifD6aIvq92R/Y6wkp08dRKgGXl+b1mbtUx98A18uXPVpzxMT2n3GP1i9a4B/iE5z36/Suz4YSl+2Xre9NN2p5mTpP9PPaPzNQhoDXSwN/XmLgjYh8MDoRtffHkErY+aRUX6QGrws/bZQj1VGr8xdIqouUZMZ6uX/ZBP9MX4wLNZ+MX6KDrmfihmTadNc07fwZBb6avPkXvM7SXs+A9Tlc9rP06sX8y7SZHDFLdZibkQtX+Xk1LhdD/RfWyWUXr63chA0eQ7wnzhuW7aCavGAayl2yxeQ21EYE630LR00ZfYntbi+0dkMhM2ama9vBq2lFMDOxTPZTop5ZyKZyb9kzCGwC7te69M9ZrvVkk9750yVDSRuBTL8JyNaN1cCUTwi0/fr360Q/YjbmDsDN+3V6eJ4Y3PNE+O1uXBe4kaMOauXzldmc+kY59PeREbApv8eULWgjjnu3zwx3HkzDAF2f6dI4/ga6Xi5+hFNiQ+rbXx2zrj/Eh9+v07s+CyGt/TP49kv7eyWgxPnR7f7L8zwRdv8MU4Zw10uDc5+jY+CNiFJQnYg69MfgLex8Oq8v0mQR/OKXppOvHOpaXHhrQ4vL0cwExy8Q4yIkwE1CyvUyfinK2I24TUkl7hFfCIZ8edO5fH7Sl3/o9VT90siOSh8RNy7m0d/0ZcmLmEdR4XJhFEqI7ZCx9fRZn7phsJ+FrJevvtLXv2SpdcS//BnzRRnVMPVCRi5c86ejvGQaflH3mKXutQCKMTy/Y6BAXZhrZZPrab45lhd1omzynCPqLSnzRI34lVe+DMvsyzTNZ+1I2CNLJXFD4d3UKiitc2nZT8lK2fm77cJP7m8q2JBSkP06zPFnYdyAWwMW+TNmWvYlKex+rWcOye33KH51r/xcUTdq2/2qTh/2X3K/MUlH9suXxOf2M+pF9lfmf78Oj+eJoXGeCLvd9f2z/zjq34SqXhIjSjalzkjyk2Ua9nta1Zs85pbYt6F4LNd1gzjuq1wCpAmBvt8zIMvXZxk7/gasXoxjMYJbffwQn975LOT1WRgh98+w2y9j3ys+GeeJkqWbHM8TG1zOE2ntnyGuQ0JfLw3GfY5yzczb7/iDejzkTJoUxblzXerZyMPyDW8jvXyGfPlrUTnwtsNwzF7CzqcTJ8wn5S8jJ3HgqRQXgDNqEl8CVuLLWSz7k9s81kPNKzvy9NeOX/6SLi/43ddLL7ccBntTyE7K3RjLVk9trMtLcz1d61TX2/myNrJgJr7gNYG3g5LWegapT2E47Weh6sU45hz0ivU4GcGS0MdzMplZYdzkJfM+7uWF35IS/cIwWY+oEzkalnpqYtSZM307WsqWPx+/kiNbifra4jAwTP/nOcybBu/1FMT6yBHDnBcXcL+WAu+fydzWOZPnpenLNyUu3M16O99C21fiBiiD+6fdQJRPF3z7udWLLrP7Js8TQ+c8EXy7q31L1FsnpqHEcR+T9fKiqBcf5wG/541Q30eCUa/qqZ087lv2uQVxQpwH0xJkeemcJ9I9/ga6XmzHk8sxYhbqfOa6j+nv97w+CyvU/hlm+6Wzv4ShlifqTmbr5rkU0Pm4T2P/DHkd4n2+Ftyul8Kel9LEjDcicpcYfehIsC+rsPMZjF8+/PRD8WGTNppNP3Hh2CZOtE/pJ/bEL0UO65EynTpJ6lTolL9MhXYBbzTuwtuWsopVkV9mu+1ftmmup6hTvX8E27LEhYRc1m8y/GUUfDsoaa1nkPoUhtN+FqpePsCLYh5LfYj55dD1zzU2qfVwLl8YsoNzfR3VBI240JMXSR4305LsRPe5/W/ZyifnleVzvpmWLr5uzKcmSLKMpu1okaKfyYsfy058pczViyTXU9aN3BaWVTW2Ryb3ayH08Wdy8fUXHY8PazZSevv1R/vkiJRi+8l6kXWhbW9xkb7vI0Sy3KH/QJRPF3z76fUi9kW/+3VaeJ4YKueJ4Ntd3z97T76BF8U+Jvfn/lnN9eLvPOD7vBH2e/riYfzmKft6CuJYeFvsb79xDbpJwY+j9AzU9Vm6x99A14t5/xfLENs6lVDnszSuz0ILtX+G2X6Z+F4JwljeEfwm6TwhJhvHrWNwLPz+GfY6JPT1UtjzUpqY8TaIWL7hbTRkvOm/PIkvyxQXuHZh5yMiIgpG/cre+5a4uPe6GSeizDCycDKbxUcjkMoMQxoZ1TSAuL2yihlvRORsht55ZuDRh8LOR0REFJDWz4v4P1P92xBRCon+3U7iEx505Eb2syWbY7oOqEBDjTHwRzoZ8OSOgTciclCQYvQhN2HnIyIiciB/gX/yMSyzdPIsWDrcPok2fucQZZi4plue3FG60bcVg91kYRpkQN9PZH9fPcjU4C6UfZlttkp2bGo6iFi+4W0kly9sR52Z7eCTiIhGPdX0Rd7oO2NzN6Ks8OqAnE27ycJofqyeKrwfGE6MbciugrLl2vyCgk3q8ZAzfvwNuHTpG/Vs5GH5hreRXL7LXcdx9Mgb+DjgLx5h5yMiInJ0+TRiR06iryCKSN5YjFWTtU6bO/4JLf/lH/Fvl9U0IsqcLz9CZ18Orr9pEsShpzOOu+Z3GHQjk+sRnX0nJqr9RA7YcPj5Z/HGaf05DQdTcOef3Yo8se3eeu80+LWaecx4G0Qs3/A20stHREREREREROlhH29ERERERERERERZwMAbERERERERERFRFjDwRkRERERERERElAUMvBEREREREREREWUBA29ERERERERERERZwMAbERERERERERFRFjDwRkRERERERERElAUMvBERERGFUTwX27cuRKV6SiNLtLoW21eVqGdERERE4TDwRkQUShTztr6Ax/aswVQ1JTzjsxqwqDyqphHRkFa+ENs3z0KRfFysTaERqKh0PpoYfCMiIqI0MPBGRBTKROQWiv/i59GrTwiv/EGUyc9CIabcOVGbNJREqhsyFGAcWnImNCB/9gvufzNqkKPea5eTV4PxM0zzi8fj83wETcdWWOcTf3k/rcGYsep1u7w16vPd1iWK62fIz1mDMWoKDQCZ6VY3GUU4g53rD+LIWTWdRpSu5r1Y19oHlM7H9uqImkpEREQUDANvRERhFE9Arvz/wnn0aBPS8MV5iFs7IY5Yy1Ht0dARxc9mFWYmwDjE5PxIi3a6+/48rqqHZjJglzdlCcaMMc0vHo+ZssU7WCcDfT9faZ1PyMldgvE/b8D1DsG3nDFaPpX4/NkuwbmJuFZG3PqO44o+gbIugtpHZaZbH/ZvPIgjaiqNTDL4trMDKFq8ALXMbCQiIqIQGHgjIgohMme2Fng7/V4GAmVnm/D8iofw7Io1eGfIZc6ozL5MBBiHmCufPoSLJxz+Tse0169+/7n2v8XYGowvkhUSx5XTG/rn+bdGXJaRrzFLkPfTCu2tZlqwzjRfb2K+DbisRV0LMe6W5KCdFhy8EsdV8fp1uQ4ZdWMnaPM4ritlRbR6AZaKzdLdegh7mek2KhzZcRgxccZf+uhcsDMAIiIiCoqBNyKiEIwgSt8X+vMRq3wOpoj/MhJgHCaMLLOrV7q0/81ycmfrga7uX+NSr+n1747i2w8fwqXuA+LPVlemYN3lf1ujzZfIpPuuC99+ukEF7exZbRW4TkZ3vz+BH8TrOT9KboacWB+HdaVsKEH1YrFR4u14pnmkhaLJXSeaZZPTwlmoLleT/Ciei7Vb69G0p55NVYmIiEaxa2befscf1OMhZ9KkKM6dG7k3Eyzf8DbSy6f1HbVpC8blx3BpZYN7M7aJNcjbsAQ5HzTiYqM9OBPFmJWPY9zMwkQmz9UPDuDyK024UrQG+SuKcHnLGnxrS9bJqWpA3n3of21iBcY/UoUx+TJ4IVwU6/ScWKdMJfkURzG16nHcWVqoNx+V4jHEXnkJ77Q5bWM5GMIWlBXGcGhFA3rLazDn/iWYolavT8z73q4GnHLIhpm66gUsKFVPbPpaN+D5Zu99KlK+BvfdX6ZnoWniON3aguPNRz0z0iLFFfhZVRWmmMrY13EAr+1oss1XgUVbxfsKEwvwoJf/lHoWTgnW7pmPMvXMS2z3Tjzdpp5k0ZifvoDxuWIfO5G83xuZa1dOP4RLvtreyj7YxHE0Bp7zGJ97tXsDes+rfWCsOLZ+vgQQ0y7hcfF6d9I66euqB/S+/U5NDCWC2q3LsRTtWLf+mDgmSlD9aJnYx9XeEu8Tx8MhUf8ee5mYp7aqDLNLc/UBB4Tu+BmceOUE9rrMJ0eN3LYY2L9xr5495vQZHYfxzI5OWI+MCCqrZ6Nq1mRoMU1Nn3hvDM+0iPd6ZaK5rGfLLh99tZUvRFPdZHS37sNqn4E32UdijShjbKPKaBXH4qJHTceYOF8ccjlfhDneI9r5aLbpGI6LY/0E3mtpclxG4nx2oRHP7jiq5vd3PtOEPX+q5cnnU6sfxJ2LRTn1N4j1bRTnJucyBi9fv7DnT43s108OpiH2xxqxP/pRuaoe9YnzvWyarPZzIiIiGlWY8UZELrpw5f24+L8IOa79/Udx/SNLkCNuXi6/Ygu6yYBc4xaMNwXdpJyZSzB+QwPGz5Khlm5cdQie5Wg3VPprMgiXv2Flf9BNyhd/GQq6yRuxhzdvwQLzTaNUWIayui14uNqpYZFqftlxHjdufQE1df03qVKumHfB5gbMS+oPKIobC9RDB33dXkE3GRCTyzLfNEqFmLJ4JWq21sA5n0Lc1K4SN/6bV6LMVsbc0iWo2WNbT9l3na+gmzAC+31LZJldce7f7eqVbu3/MUXufblZjJ2L62QfbFcO4LJHZRmfa8lq+5FqRnqlS71ehuvytFeUqHi//F8cK2kF3UwKc1G9qhbbNs/vD7pJ4nFZ3XKX0R0jqBXzNIl5lpqCWVJR4WQsFfOt9ZElJINwjp8h/qxHRgnWbl2O+sXmoJsk5iudL9a9FmtdsotclyHWs35z6qykyjsni3/7cOK4v6CbpGfHduPrs6Km5EAl4li0BLblw6RgTMjjXZzP9POReSZx3ItjXZ6THEdNLp6rnb/6MAHz5LnC9/ks5PnTWF63OIkX1+DhPWJ+U9BNyi1difuc5g1TPk3Y86fJ2U9xQn4llt6CSn0KERERkS/MeBtELN/wNvIz3oS7ZFZaGa6+tgG9LQ5ldX29AuMbV+qjLF48gEvPNSWy03LEPOPFPFrQQrzWu6nJFuBQmXYQrx2cgDz5+R804tIrR1WQLooxdwFX3s1A3YubuMfEjZhkzbCIihvkB1EjbgZlRkQiU8UgbxY3L1E3inGc3v1rHG/r0ufVslnkjbV4LD5Tz+jwpmfBOSwnQXzmHvGZRnbGcbGexvvE8uaJ5clRUU/vfgivWjLCjMw8+di2nuK1RJZJ/ACa1tsz3yS1XNfXRyCVZZbT14iLnzptu/4MNlyJ4XL3S/jW3OTUxneGnBy9dIrY30zL1eeFymYTx9RscUxZ1stpWlgq400FJbo72tHSckxlgMnssgWol00shaTMQyMLTMsaOyHmMfYU83xnsHNF8kAEesZbLmIdZ1BWOlnspuJ9ts+IFvdYMtiMefT3mrPUxHvLZ+OJ+8XntDtkpKn1lCGmWGsMzc39WXRR8doT2iilXllJRh05l8WZOgbF+azplQla4Ec717QYx7A4DsuBU5bMsHSPd/1YfzXxmeJ8Vv4g7pNBJ6fzmek8GOh8Fvb8qebri8eBwkJx/pEZfy/h1Fm5vvKHAhnIEw+Tzp8hyxe6PpMlZWimIpuaPjpL+/wgWZJEREQ0sjDjjYjcdetZPzmFTilvUVy/UNxYycCaLSg3ZqUKusnmp5v6g27S1Xcb0LtH77weF52yiibiWpnRhtkYv6IIV/ZsQG+jEXSTujITdJM3Y+qmUd5wPZ+4aZTETWdzA5paZXpDIabMsWZRGAMrQAakVqzRbgAT8549ild3HRC370LBBHGrnoqRBadnxDiZukreNIqbU3FD+apsEmV+n1jeO2p5uUW29ax+XLvhc1xPUcZToozPb2wUN70uQbVMjtw6XBhZZq6DFXTh2w834FKf2DfGlGGcNpLpGpcRR6MYc6O2AfD77/UpqZiXq4+6amSzHcUP2kaeox9bUpYGVtACBDuMoJvUgyPNe7FO9nEllN1py3prO4h1G3di9XoZBDPvKfp8ckRI4AZM8BgRUgbd5HJrHD7Drdlod7sM0KknGvFesS6r14t1SQpwRFArA3JCbPdePG0KuknafLvPiEe5mD3H7ai9ETdrm7MP5/QJPqjsWHE+u6+uSJxrNujnmsR6i+MwEUDShT3eE+IntMBZP3Hct4ljfcUG7TPtwf1Ikcr9C3Q+S+P8qZanZda2bsCz62UzVmN9RX20qOW5CVi+tOszSS5uvlk9TOXsMTwt9seaFU77JBEREY0WDLwRkbvPj+GHi+L/fP0G3yyn6nGMyweuHLRlrE2swbiZ4n+ZzZbU55vVlXaH1yeqZeUX4uqeNbiUkSBbskh1lbgZg9avmluWQ8/xE+qGzBp4NAZWiLkFrM6e975xtFA35q7NNitwi9ZHkGzu9QIe2+Pwl8i+M6vAnMXyg8UNp1e2mrjxdO0X6WY98DaaBlYYk6sHE7wHK+jClU/XaCOZXtEGRSjD+J83YLylGag0EddqUbLUTUGTB3RIbvJ6pU8GrE3NTU1NUTPHvRll1/EzoiRCwY2whygSwbHiCCrL52Ltqlps31qrdSqv93GVIljRcdh3YMJYj6LFC7C2ugRRj4BeQvFPMVs7ztrR7JbV1PaZOFrE5876aVL5QjOC14WF6NutB7W8hT3epS58fUH8V7gE962qQCSpXrocj/Uw57P0z58yYOfdp6XWFNUiTPnSqc9kXd3fqEdERERE/jHwRkQeunDVMfBWgXH3iZsn2QT0XTVJySlToyy+f8whm02XUyiDDHH8Xu/WyqpIBRNe25D02Zlk3GyePh40aJE6Qy0QdWPe137M+aZXjSoamHHD33E89OAHU+/Um4qN+JFbE4w+02L4wU/ndd8dxaUPH0Lv6ZjY1wsxZkoDrnfKfHPpL66fQ2acymbD96Z5e49rAyuMya3QnupBQv/ZdBlTmItJ6qEhKoNtcvTGzctRXzcLZbIPNXMfcSl0d3+tHvlw9hhWb2xHLJ6LssWyTzd91MimrbJvN5dA3M2qT7fCWdgm3+v452+Qj0BU8NorQGUR9nhXTu3YgEMdca2PtBot0NSARdUVHpm34c5n6Z8/Y/jMJQhpZBQ79XkZuHxp1icRERFRJjDwRkSersp+eGSWzV36c0lvSuowoIKgD4wQxw8xtxuyKMbcId/jPLDCGG3QBa/5M8HnzaZx02zJvDAGVvAIaAVooul1kykZzbJkc65nV3j/WbJHHNc9iAwHGF3JUU2dgiDJf3466E+PylBLGSizutrbgEvderO663JD5EolBmA4gStGZpxjk1eH5qbyOMrUwAphlS/ENhls0w79M4i1HsbOjfuwTvzJJnZ6U9MMM5rwiWXsbBXLjPehWw4AoQJx21eViD148BnBa78BqtDHe0IXTu1Yg2c3bsCh1hj6jMEDtACVU42EOZ9l4PzpMTCLEdRzDvgHK1/69WkVLbpBPSIiIiLyj4E3IvJ0Na5GWyxUNzWqKenV136Nb0PFdFQfbo79u0WRo/Xv5hyUG1hRzLtfz3+xBMWMDDWPgNbUKr3pkp8mmt43mf389z+UKT5uyEeaPBXQMmeZ+eQ4Kik+x++1FDV7xqjVmCI5MjBwpbu/2bbe9DSOH/qswQC9uWkRcsaq7LyAQcK0GFljlj7OSrBWDViwf7feR5vsP03209Zl6astS8QyjjSLZa7fi9UrZCDuMGJxUUOl8/GEeYTSL/rEWUXoOKwFAz3/1h+Dcwjma3yhxVeTM/6chQ9ep328n+3S+3CUQaWNjTgdlwGqx5NHJlUZYZk6n/VzOX8aGWiuP0r4rDO/5VMye/7swxejJguYiIiIMoGBNyLy9q7evE0fYCGK6x+RQYIYLjuNcppQiGv1RAObaP/AC14DKzi+lkmqryCU4RaXLCrzwATHTU3EEgMruIiUr9FH5NOaUmmTPKS+yezp1gM6ubPmujanipRHk1/7Qu+XKXfxg5iqT0lW7NFEy8hyybpOPO0U/HD4s4ykGYrY/366xrk5qNy3i/RAwZU+e4BBjmT6AvJn1LgG0BJ9tFky1LrEc/l/GcZNcL7xlyOXjpcVfeUALptSgKwDK5hoQUGZWTdXy867+rV7k26NHFVRNgHdU4/t5kCUB+e+2PoHJ+hu/zQ5MBU/g3fanEIpEUxQjzIlWu6RzXZW7E+vyEESgKKiG7X/NWc/xQkZNCstQ61LcCa1HpzXzhveA0X0S53dZRf6eEcFFsl+z9QzCzlAwisyYFuIXNu2NTLC3DJu5QikyeezNM6fRgaaaxDPrc7ClS98fTqJYN4sebB+g/O+A6kl/cffKtugJERERDRqMPBGRCl8jt8b/bzd9aA+oMKeBi0Y50RvmgqMWbEGY0zJPzl31WD8pi0YLwdeEK7GHTIsjIEVsh54A069J2/UgCl1DVgkbrwSiiswb1UDarSBCZI7HDc6Bs9dvAUPW/oWimKqnC8x0l9D6kyx4rmYkurGvO04Tsv/C5egZmsNpppu+CPGutZtwRz7DfDZYzitbYoyLNi6RsxnLqO+ro9tXon7HJufmZRWYZ6pfvRlivVQz4eVsXMxLrcM437egOvzTOUeW4HrZ2zBOK25pzUAplMBtDFLkKeNYGquMxnMa0hkLiZlqHUf0PblnKLHMd6+TNN8lz8zD1Likc323TH8IA6+nBtVX4opBlaorFJNQAU5GEHqoFMuyupUX2lqCopLULt1OZZqn3MGLU6DIBTOwhPmecSRES1fiO1yPi1wkyHimHmibj627anVm5MWW0MmUbGuegYebP3G9WCvFpDLxdLNTn3BRVBZLdZ3z0JUqilOjryXauRTkwBNzhNCHu/aYAey37Ot+vnMsnZivkUq+8zOOJ9NqXvB8Xz2mMv5LL3zp0eGr5GBZ+vzMmz5Qp8/nRgDdHR8hiP6lJSi1WX9x19aQV8iIiIazq6Zefsdf1CPh5xJk6I4d877pmI4Y/mGt5FePrMxK1/A+JlxXL1YKG72D6B3k20kU4sKjG9UWW12F2O49H4Rxt8HXN6yJrmp6l1rkL+iTBtYodczoy4zpq56QWVzOBE3jRvX4B1LZkMU87ZuQRli4mauTA+aJYmLm9Rf+xi9UChfo93Yyo7XPfsXUu9z09fRiNd2HE2+uS+uwcMeI/b1dRwQ87mNeKrK6lhGeSP+kL/O4oeYnLw1yJviVpdi/zzhHlSWAbbxWjqOkziunF6DSw4RVJnVZgQ4ksVx+d/EsWDObBtbg7yfL0FOXyMufurQj2Li8xzmtalcZYwqKvVh/8a92OuYrRNJBNdkd3XOq+s8f7S6FtsWu+xl8TPY2Q7UL56M2O7krEVj3u7Wfb5HNZUDOVTf3x9QdBRvxzqHJqOe6yqJ9d2/66BLHUmyT8L5KHP5fAu/x7ddyOM9Um0EvFyI+Zos8xnns7jYsoV6ppkDt/UPff4sjOHQCucfJowyOJ1fgpdPCXv+tDH2Haf92I19fwuynxMREdHIcW1+QcEm9XjIGT/+Bly6NHKHbmf5hreRXj6zq9dGcf0dJfij68WN/jPbceV36gVH5/DDB1/imvE34/+V/8f6pItxXHlxKy49fxD/a9p9GPvTbnz/wjtJwbuc2cvEa3+M//nWc/jhvJqYRb3vvoTTX0UxoagIP1Kringcp4/8N7y2ZTc6L6lpCTMw83+fDRx5Fi8/8y+4VHwbbiz8Y2gDYcqb147X8dau7Tj2ob/9IjJ3GaaX/DHibz6H37p3sQR8/g6Od3yJyLSbkfvHxorKG8YDYnmb8fpr5+AYe7n0ET5sidnWU4jHEGt6Fq82v+U8n+YbfPEvMVwr5i0S8xr6xLxv/V//UZRRTRhm/tf37+DyN18i58ezkZNoNxrH1b7/hr6PmvA/1RQnV7/+Z/zww7/DH/3ox2LexA4j5n0d/+P0dlx2OS7+1/8w5pvav8wr4pj48r/h0snduPL/U9MMP74PP84tEp/7/+D7/5G8L/2v39+IMT+Zij9CJ74/m3wcmZ29cC0mTytEkVjd7tZ/RMPbblt8LGbM/zmm/XEf/vX/+gfs+TSC24pyYexu3R3t+K+7/gmtDgGpbz7+CO99ZX2/FsBqOoRN//ABzub+DMvKchFvP4G3bfv5DT+fgfklP8L/+O2/4bWPPSKIJt98/gXe/pcTYpnXIrdojChbYs9Gt1juv4rl7vmHTsegmFzXFzsu4d/dkIsfF/4IxurKfutiR9rwzDPv4q2k496sF93/7qeYP2sKbvt3ZzzX2ffxbRfyeP/u43/W5rv2hpvxI9Px3ifOafGmrXit+QNbcEk/n+V++t/w3P/7/0k6TySW97bz+Szs+TM3/h5O/MtHjmWYuGAFbikUn3Hgn/GFbf7g5VPCnj8tSlD3f/4cRfF2PPMPX4izoz/ffPw/MfmuKdrxJwXZz4mIiGjkYMbbIGL5hrfRlPFG2WBkfzhlhhANNCPjzSsrjnQjpK5URiyCZuSNQnrmaBrbu3whmuomM+ONiIholGIfb0REgyHRv9sJ/JZBDqJhpAd7d7WjW+svzrtPuKHMGCjGdWAF0sjmorK5dnfrodBB1mjRDeLfPpw4zqAbERHRaMTAGxFRVkUxb5Uc3EA9FSLl/X2v2TsRJ6Jh4OwxrN59Bt2YjPqtwzP4lnKgA+rvo63jcPhMNTkgiPYZMWaSEhERjVIMvBERZVP5gygrLcOCzS/gsT36X02dGvAgfgCvsYkX0fDUdhCrN8rMN2HYjVYZxY0F8v9ufM1gkKfujsOo2dGpngURQVSOlLt5ForkICOhPoOIiIhGAgbeiIiyqa0BTbsP4HRcPZdkB+StjWha7zaiKBENCzLzbf1BHBl2wauJ0EYxjZ+Hw0C8pHQ178Xq0AGzG1G9eLKWLbdO7iNqKhEREY0+HFxhELF8wxsHVyAiIiIiIiIiL8x4IyIiIiIiIiIiygIG3oiIiIiIiIiIiLKAgTciIiIiIiIiIqIsYOCNiIiIiIiIiIgoCxh4IyIiIiIiIiIiygIG3oiIiIiIiIiIiLKAgTciIiIiIiIiIqIsYOCNiIiIiIiIiIgoCxh4IyIiIiIiIiIiygIG3oiIiIiIiIiIiLKAgTciIiIiIiIiIqIsYOCNiIiIiIiIiIgoCxh4IyIiIiIiIiIiygIG3oiIiIiIiIiIiLKAgTciIiIiIiIiIqIsYOCNiIiIiIiIiIgoCxh4IyIiIiIiIiIiygIG3oiIiIiIiIiIiLKAgTciIiIiIiIiIqIsYOCNiIiIiIiIiIgoCxh4IyIiIiIiIiIiygIG3oiIiIiIiIiIiLKAgTciIiIiIiIiIqIsYOCNiIiIiIiIiIgoCxh4IyIiIiIiIiIiygIG3oiIiIiIiIiIiLKAgTciIiIiIiIiIqIsYOCNiIiIiIiIiIgoCxh4IyIiIiIiIiIiygIG3oiIiIiIiIiIiLKAgTciIiIiIiIiIqIsYOCNiIiIiIiIiIgoCxh4IyIiIiIiIiIiygIG3oiIiIiIiIiIiLKAgTciIiIiIiIiIqIsYOCNiIiIiIiIiIgoCxh4IyIiIiIiIiIiygIG3oiIiIiIiIiIiLKAgTciIiIiIiIiIqIsuDa/oGCTejzkjB9/Ay5d+kY9G3lYvuFtpJfPv5lY9uRKVP08B53vncZlNTW1sPMRZUIB7ln5H/HQnxWg78hH+FJNHR6MdZ+O/L5z+PjLb9V0Si2T253bgbJr+vLH8Ff/2yLcVvA1Yv92UU0dabJ7HOXf+xhW/cUi8dlviM9WE4ehkVIOIqLRihlvRJSW/HsrUYIevP3yYQS5LUg1n7zI3PDkJiyboSYQpaDvMzWYrp57+wkieeK/3h58pU8YPmbcg1/IdUcEJbf+RJtEfmVwuw/x7RDseBg9hk295M9HeUlEe5iX9xPka49GoCwfRzfdJOuwBz3DOlhVgFunZaccPE8QEQ0MBt6IKDxxY1BVLi4GO4/gjUBRt1TzZe8ik0Yqtc/4Dajk/wTavV7vl4ECxkPClz3o1R704O03P9AekU+Z3O5DejsEPB5GjWFULxc/wiltB+tB58mPht95yq+sHkcFeqBdXksM6wo0fjA4iU8yWg6eJ4iIBgoDb0QU2vRf3i1uYk/iwL5gF8up58vWRSaNXMY+4y+gkn/bNC0A0/nJMAxcXTyM3zy1CVueejZYwJsyu92H9HYIdjyMHsOpXi7gjUZ9/3rx9Qtq2giUzeMofzqmagf8x/hInzI8Ze2HIp4niIgGCgNvRBTOjBosKRHXa21vBLug9TPfcM5GosEx4zaI3cp3QGVkND+ioEbNdg94PIwarJfR5ScR7Vqi96thfsBnqxw8HoiIBsw1M2+/4w/q8ZAzaVIU5851qWcjD8s3vI308nmTnSE/il/gLTzXGKRvN5/zzajBhqXT0Nu2C78J8kt/fgGm/3KZ1i+OFriTek/i7bfewBsfenxO4PlUOXpfxpZ9HyB/xnxU3H03StTMvWLetpeb8FGmo4aB1lOtY95JHHhKrIuamiR/Pn5VdzfyOvWy2OWLbVF19zTkJRbYg862Izj6+geu20/2GfNIOfD2bpXBkD8Tyx6oFPUjgx6CWOcDadeP+MyVps/0ZK8De92Ier33HpSX69lQUq+ojxZRH65lDFEvYUxfvkkLVDtJdXzo++U0Ux31iHKJffPNw951n+bxIJ8Hrc9Qwq6n2u5fBThu09kOUtj9JV8cO7f+shJTTWXs7XxL1KX9/JnO8ZA+/+tpJrbfcuv2k/No++dP5HdApP8coglz3k2jXlKcG+37k70+A58H1fdekt5U37PpHn9Bt0N4aR1HIb7f9W0QQef+TXjxQzUxwdh+7sseqPO8zn07fHWbdzn8b79MnCcGbn8hIhpJOKrpIGL5hrdRParpjPvxUKm4CDz0f+NEkB9gfc6X//N7MGvSWHzR8Yrv0bvkBfJfPPRnKM0bi7FqmmZsBBOn3Ynbrj2JWFfyaGmh5sufi/vunoTve3vxxz9fhKXyBsc081gx79Sy6bj21HF0ZWi41uDr+S2+/+PpWj32uq6HuPH4Dw9g6lg5yMU/2t4jL9BXYoHYXmOtC0TepFsxy2M02slzFmFq3jl0HPwI14gbn1VVZaJ+zBXUg1PitbR+u8+foQWVLKvmRtycvWVZ1ym4889uRZ6c/vkU/MX/8QBKJ4lyqlelsXm3othxnwlfL8EV4LbKOzHRpZCex4fYX1YtnWWtd7GOY/Mmafum2+iBaR0PJ99E7Pu5+FWg+gwn3PGutnvnSfRW/gcsLZ3k87hNYzuE3l/kze0K1P5pGSbayii34axK23qmdTykI+B6GmRQS+4nDvNo++cfiW2jziGJqg1z3k2nXqbMwX3TImKy2K8d91vTecShPoOeB43vPbvejlfxptdxk87x57kdCsR2kEEn23YILfxxFPb7Xd8Gop6P2vdBeVz+77gjD+jcvwv/9V170G0gz/NCiu1w/Th5rjqJthdt2yHocZTueSLMcUtERBpmvA0ilm94G70Zb+KC9MkHUJLyV3g7v/N5ZxE4EhflRqaA9Zd9ceNw7z14RNygyV+qk36FzcB82i/g+1/E0Q8v6PNqWQ2inPKnYNdMiYDSXE/XTALX19W2Mn7d/1gsz/hcUb57RPlkloBnFoHManwrgkfk58t1ftP4DHGjPgP4yCVDIZyA+6S8eai7W1RmD5AX0W6c+zNPZCDhUT0rI2n7pVMvmaNnjThs7wTjGNL3zRcTdS32lxn3oEpsk7wU+3Wo/cxSn2+I+pTL9arPkMKup9ruepZG+sdt6u0Qdn/pz8RJWk9Zn6KMWjaT6/4e8HgILex6GvUiiNcOvNyfgSkDLPr+KdjnM233cNsvWL14Z0sJxv7kuLwMnAdVeVOeT0Iff/3bIZGx5Gc7ZFjK48i03QMd78Y2sF9LJM4D+j7Uf340GPUS9LgNK+TxEHo+Q7DjIf3lERGNbuzjjYgCyb+3UrsgfVtcdAW5sPI/n9HZr99RtsTFoLoolxfCv0lclEvipuz1JjzXJm5IEMHU2wr0yZqw84myRIymQuICU3Z8nbjZFC5+gBdffksfpS3vJ8jXJqYj/Hoao8Xl3fQT/bmFuCm5W3yuKEOLLSg3fbm8uBY3K+JG5kXZpMa8wUT53lDly4vYlqdR2w/TxIW4vGndpa9z4jMuZDjoJgTsE9DoYD9PNrdp24UtjabmXnL93lTbzya9esmUAKP0iRtwGZjoJ/aXD5vwm6d2aWWw3qSmfzxY69NYrnt9hpPGeqrtnpnjNvV2CLu/5N+7TA9mOa2nrE9Rxt/sflm78XVc9AD1kRl2PfV6EWQgSNyg9x97olrk/rn/pP7Etv5pn3cD1kvK/gA9+91K/zyolzd1f4Rhjz9jO8hg1m/2uW+H3qyOqJrqOErj+89pYAVT0E0G6uQ+ZDfQ53k/x4O2/Wz7bdjjKCHg8ZD28oiIRjkG3ojIP3HRWlUuLu47j7hkeLgIMl/QIIoW0BNvFzccbr8+X/xYv3A1B6DCzicZN2SuQcSLXzre6ISRznri4kc4pb2QfCNq3DR3vmUvw0xM066up2FJ3SZseNLhL5E15MDYfuImsHe/841Nxqkb4GADK4j3yxs5jz6FrDfUadZLxvgJTF9Aj7bd70bV8pnIT4pCiJtx246b/vEg69Mls1LJRMfgQ+e4TbUdwu4vM1Ehz5Xyxt8ra+TiB0nbMCHg8RBOyPUU3wXl2gZ8C8/t814/+/qnvf0C1YsKCPW6j6w9/VY9INTb47DPp30eLMCt00R5PZZvCHX8mbaDzCDz4li+jPE+jtL6/rMFRmVWln7M6UE352uRAT7P+zwezOXQpHEcJQQ5HjKxPCKiUY6BNyLybfov5QWnuNFKceFlF2g+28VyKsbN2KmPg90chJ0vUMZRBoRfT8kIwERwkz5BUTfNnS8n38yoUc5CM7afx41Spuk3wKkzQ3TG9juJky7rZ2RGWW44062XTFE39KmyUD7atwsHOnuQV/IAHtFuIB/DsntnumZypX88yPp0ntexPkMaMsdtqu0Qdn8xAjbmLJ2Agh0PIYVcz8S+4LH/Omd6pb/9AtWLkS3l+gOQaX2cPi/t86ARkEr1A1S44y/8dsiwFMdROt9/RiagLHe+bDasMufEwtyDmQN8nve/HfRyGDKx/YIcD0NmfyEiGsYYeCMif2bUaP3E9La9EeyGMOB8TheZ7nzejCUF88LOJ6kbIq8bTuOmNO0mF+msp+6rr2QznGmYNkN/LulNRnrw9pvJgVCj/mU22JanvP+csiuMi/lwgcIwfNZRQuqMMeNmz3wDkW69ZIrTTbSzC/ho37PYsnsXDrTJjJAISsofwCNaAM7eRCoDx0PA+gxn6By3qbZD6P3F41j2J+jxEFLI9UwdSFGZXknrn+72C1gvKctn7PfOQZy0z4MqAJQ6eyjc8Rd+O2SW93GUzvHeX8a8uzdpffXJJrUHZLPUvLtRYfo+NBvo87z/7WD9oSj97RfseBgq+wsR0XDGwBsR+eDeH5i34PPpF3ju2UjBqXUQ/AXzDC7zqRsirxtOPcPPz01TJniX72KPDLzJpDcVbFFNRnrbXvRs9huu/5oBuum38HFDbpYyuOJdhuz235aacQPkO4h1UfW1JW8Wd7+Mzl4ZgFuGe1J3YmbjfTyErc/Mc1lPI7MmQ8et3+0w8PtLwONhyHEJJKV93g1WL6l+AMr33O/T3+f15fs4zrN1/CUy/twDepkQ+HyWxO37z2gyGkGeKIfMPJT9w330+hF0iqkld8/37MdxsM/z/VIHVp2lmi/T54mw60lENHow8EZEKbn3B+Yt+HzqYtn3xZtqSmnL6DIzdwB+NBHMCzufmJ7ihszI8MtM8DD8eiZ8+LF2o6H3fyNuUh7Qm/22uQRCE4G6adNdb0zyZxS4vDYIF99GIM0nI8PCPbjiXIb06iVT/NxEz8Qy2a+bemYhO6B/S3aAHUHE0h1S+sdD0PoMJ431VNvdjez/yf9xm3o7hN5fjAFRyu/BdH1Ksnz3JsNBj4fQ0lpP+/5nkCNwqg7cbYGktM+7AevFKyBkbrboHAhMf59PLD/FF2d6x5/DgASSNnKnHsR0D+hlQqrjKI3vv8T2lv25mbPTPsBRj6y3wTnPBz8edGHnE0KdJ9JYHhERMfBGRKl49AfmKcR8xsVggIu3jz7RR9IqWfoYlokL4gR587Bc3CBpHYAnd8gddj79hkjOtwm/svSZJS8+H8OGxAhsTRn5JTnsevb7Ur95kQMszLhHu0nxXDcVqJM3Jo+snI/ppjuMfGOZSx91bqoTYvtlTEkl7jHVj76uYv3Vc0PKDAsjs8bel0069ZIpPrJQtM7IZb9uK/X9xXKDKNZzmcoOsUvveAhRnyGle9zmlT/qeNwagRRfx62fbKCw+4sxIAqmYcnKGjGfuYzqHFP3AKqSmgvb+DweQgu5nnrTd7n95DzaQ03+jPlYtvJRFTwTVevYbFDOl+Z5N1C9RPCLX5qWJd67bKXebLGzUy+HYyAw7fOgEZCahnJT/eXPmGmpMyns8WccR8bxILefsV/+Smw3LZgl+Mn+DM3HcRT6+89ofuqQ2X3RK+ttgM/zYY+HsPMl8Xk8ZGx5RESj2DUzb7/jD+rxkDNpUhTnznWpZyMPyze8jfTyGfLlr/vl8BgFzFmo+WbUJG6gvMj+V8zBvOnLNyUu/JKJi3KXdQg+XwHuEReZvxCvyT6zZBMWJ1qzlgz0/2IIWz6DPr9Y5155M/IWnvMahVBKsR1kXzlyJLykz1DzZbr83tQ2cdkW1n3FeO9JHHjK+QZd32/FjbVtH9OErZdM8Vm/RhlcifWUI9PZ1zP08RC2PkMKf9yeFDfV01DiuK/0iHV8Uayjj/3W734edn/Jn49feYyc2NspR6J0O4aDHA9pCrWeM7HsSZUdY9cr9qOTESxJ+t4wtl86592A9eK67fT965PbPL7f/O4fHtyO4Uyez9yOI7nd2r6a5rAdMsxnPYX5/kt13jFed1x22OM2lDDHgxR2PkPQ80S6yyMiomvzCwo2qcdDzvjxN+DSpW/Us5GH5RveRnr5NOLG6i+qpmFs5z/hvx4PcDUVcr78n9+DWZPGqmduenDq6HF0XVZPhS//7Q109hWg+KYIxhqz94ob6Y5/Qst/+Uf8m+m9ZsHnm4I7/+xW5H3xT/i7/8+b6CuIIpI3FolZxQ3L4Zf/bxz86Fs1JTPCls/w5R8VoGLaJDGvuEl5vinl+/HlRzh66mvkR29CXmKBpvKJber0Ecb2+6LjFXw8YD98f4uu907iWrEtJoptYegVNwOHnxc3AafVBI3afuK1t9477ViGyXMWYWpe8j6mCVkvmeK3fi93HdfW89o/vgljzfun2Ge+OPRf0PL6Z443jaGPh7D1GVLY9UTHi/ivze/Zjtsesf3axfZrEvuKv+PW934edn+5fBqxIyeTzi/yBvftQy/ipdc/8NjPghwPaQq1nhfxsdo3E+snt53cL1uP4bvJc0Td9qDj4Efor9pMnHcD1ovYdn0FMiPLeK9Yx7b+/Uvfr8/Z1lOXifPg5a5zWjntyz/6rnmfSe/404+jHFz/R3IZ3+GLL9rR9vKrYr/8ErctrMTEsc7lyxS/9RTm+y/Veedy1xXkV96KiZOuR98RWxkH9Dwf5niQws5nCHqeSHd5RETEjLdBxPINb6Mh403/pdn913Q3Yecb8lSGB9LIZCAKx8hQcM7woIHC7TDgeN4dYCq7qddHdnRoPI6IiGh0YR9vRORsht5ZdW/bG8GCZ2HnGwaMDtpdO/gmypZEf0gn8QlvUgcPt8OA43l3YGn9RIr/M9UvoyMeR0RENMow8EZEDgr0Ifp730JLoAyDsPMNDyk7siZKmziGlid3YG30pZXVm2Ey4XYYKnjezTCZQfjkY1hmGaRCsAxY4D7ydTA8joiIiCQ2NR1ELN/wNpLLF7ZD9LDzDQ/iBiJFR9ZEafPq2DurTb/IgtthiOB5N+NU010Z+HKWweafPI6IiIg0HFxhELF8w9tILp/WOfuRNwJ3DB12vuEhdUfWRGn78iO9w/ObJiHR57XRkXjzO7xJHSjcDkMEz7sZ5zoohtq/fQzY4xuPIyIiIg0z3gYRyze8jfTyEREREREREVF62McbERERERERERFRFjDwRkRERERERERElAUMvBEREREREREREWUBA29ERERERERERERZwMAbERERERERERFRFjDwRkRERERERERElAUMvBEREREREREREWUBA29ERETpKp6L7VsXolI9JfLE/WVEi1bXYvuqEvWMiIiIRjsG3ogoS6KYt/UFPLZnDaaqKeEZn9WAReVRNW10i5bPxdqttWjaU5/4kzfyteUR9Q5yFkHtVllftagtVpPSVb4Q2zfPQpF8HOQzJ1bg+pUNyGt8AfnqL29lDXLUy6PRGFEfej1UqCkjUNj9ZVTIwvE5SIpK56NpUIJvEVRWi31Mq0fjj0FeIiKiwcTAGxFlyUTkFor/4ufRq08Ir/xBlMnPQiGm3DlRmzSURKobMhRg9EncuG+rmyXqJFdN0BUVTsbSO29UzwaBWC9zINDtb3v1CAoOysyluskowhnsXH8QR86q6alMrEHehpUYN7PQEmjLmbkEeZvWYIx6PhzlVMngWYgyiDqR9SHl5E8YmQHIsPsLZYAK6m2di2z/fNPVvBfrWvuA0vkDfr6rXLUc9YvFPqYfSkRERDQEMPBGRNlRPAFaWOjCefRoE9LwxXmIWxghjljLUe3R0BHFz2aJO5xMBBh9KcFaceMudbcexroVO1Fj/G3ch50tX2uv0UAQN/KPysylPuzfeBBH1NTUorj+kSVaYOnqB43oXfkQLqq/3j0xXHn/JVzR3zgMRTHmDnE8XDyPq2qKb58fww8X5YO4qINjwecf8sLuLzQcyeDbzg6gaPGCAczei2BCgf4otntf/3fDCu5vREREg4mBNyLKisic2Vrg7fR7GQiUnW3C8ysewrMr1uCdIZchojL7MhFg9KP4RmiJDPF2PNPciS5tonK2B0fE36AT62YJCNr+VjcPgXXMgGj1AiwVG6O79RD2BtkvJ87Fdfnifxl0azxqCTBdfbcBl1osW3WYmYhrZdnCBN7E3vztJhmAXDPM68BZ6P2Fhq0jOw4jJr4Jlz6a/Sw7C3EObm4bGedZIiKikYCBNyLKijytnUscfV/oz0es8jmYIv7LSICRhpESVC/OVQHQYDe4OWWztWy3K+0jcJ+5a47WxHREli0t4fcXypQbcbP2q8VA6kSzbHJaOAvV5WoSERERjTrXzLz9jj+ox0POpElRnDs38n71NrB8w9tIL59FcRRTqx7HnaWFevNRKR5D7JWX8E6bUx3IwRC2oKwwhkMrGtBbXoM59y/BFHXT0yfmfW9XA045ZH1MXfUCFpSqJzZ9rRvwfLN3nUfK1+C++8v0LDRNHKdbW3C8+ahnRlqkuAI/q6rCFFMZ+zoO4LUdTbb5KrBoq3hfoZ87OL38p9SzsKLVC/GE7LNHPXfVcRg1OzrVk35yIIbq+2WfcGoC+tDdEcMz4r1utSlH5du2GNi/ca+enVNcgtqqMswuzU2sR7dYnuUzZB9vshmszHhbf8z1s105LSN+BideOYG9ntkbEVHG2Xji/htQlOj3zq2Msp+n5VhaKJv7ybJFULlqAaos5WoX86VYf1XW7tZ9PjL4KjB+UxXG5KfaZ2K4tLKhv5mp1g/cEuR80IiLjU6BrCiu37QF4/Jt8xnTLxrzRTGm6kGMu68s0W+abOJ6yZZtZ5YzsQJj7q/CdaY+6K5+cEDM02Sbx2/ZJNt63rUG+SvK1BOTiwfQu8m+HAcTRbnuf9zaT97FGC4ffAnfvuu09dKvl9D87i+yDzg58ILrMWTff9XkBNmx/mxUzTL38aWOhRZxLHhl2rkcfy273PuiC3We0BjHbP96yuOupeUYUFWP+lK38glBzhOi3rebluHJ5fwZ/rykGNvU7fMzrHKVqL+CkOdgIiIiygpmvBGRJxnIenjzFiwwB92kwjKU1W3Bw9VODWhU88uO87hx6wuoqesPukm5Yt4FmxswL6nfmyhuVP3TOOnr9rqNkAExuSxz0E0qxJTFK1GztUbc6jmJYuqqBtRsXokyWxlzS5egZo9tPWXfdb6CbkLG+n27IXHDF4zembg+EIOapBE3kKXzsc3nyIHy5rpp83wsNd14SvJxZm7sxHquclmGHDCibjnWumWLiJvitVuXizLKm2vL1ktdxpv1eevtyyydhW0pOmCvvFP2s9eHE8d93HhPnIAcX4EpmyJ9gIGr8c/150lcmnWqpqzafDJ417gF403BJSln5kqMr3IqYVQbWdR14IfGBlxvHt8kSNls65lT6LxXX/XRv1vOXWvEOopy2dYR+WUYt2IL8pzKlla9pCfQ/hKa2p+TOtZXx8LmWqx16ejf9RgXx1/9Zn8Dovg/T+jBQ/2YVZMEedzVi3Wscv0OCHee8BV0c5TGecns7Kc4ERf/l94ycCOLinPhJPWQiIiIBh8z3gYRyze8jYqMt/I1eKxOz0jp62jEazuMrLEoItUPomaxfC2O2EZb32vFNXh48xIVxIrj9O5f43hblz5vcQUWPbpSD8SJz3xWfGYqehacw3ISxGfuEZ9pZLcdF+tpvE8sb55Yngw8nd79EF5tU9M1RmaefGxbTxmQE2W8U5QxN34ATevtmW+SWq7r61mQMiOmn56NIrdCH2K7D+FpIztDZnA8Km4mtXKfwU6HjreNeWMdZ1BWKrPYxPt2nTD1IRdBtLjHmkFjZLx5iO3eKdZDPTEY2UBado11GZXVC1CvlcFpPUuwds98aHuomHe/JQNFZf4snoy4ZZn6Tb9edqkP+0XdGPNFxbrIgIDkuK4a4zOc685bBcY3rsQYH1ldcnTQvPsKcWXPQ7j0rppo5pYRpzLJrl4Ud/v5hci5GMOl517Clc/l3iIDazJgJR4mZdIZGXTycVws99e4/G6XWkdTdpjruvsvmyO13q7lNZgy5awZalFRZw+KOtPPS5e3rMG35phl6HpJV4D9JY2Mt8Txrh2r5iy1/uwytDtk3CWOW3GeaI2h2dR3pDwenpABMnmcOGSghTlPaBlZWlaz9bwUFeelanFe0s/HDssLfZ4wqPOF34zctJfXT68nU2ZgFun162+9iIiIaGAw442IXFRgkQq6yYDV84mgm9SFnuYGNLXKn/ELMWWONUPEGFgBMiC1Yg1eTQSzhLNH8equA+K2SiiYIG5hUjGy4LrxtcsNy9RVMugWw6GNYlmySan5fWJ576jl5RbZ1rP6cf0mz2k9RRlPiTI+v7ERh3a5BNUyOXJrpokb+Ce0G0P9BjYRdJPOdmLv+n3YLzcfJqPKI5tF3kzL5nE16+WNvLmUtqBbOtoOYt3GnVjtsIwjamRAmfU3wZa5Fq0uU0E3eSN90NbsS857EKs37nMJngkySLBC3Aib5usS66IvT+zZRW71ovqKivfhnD7BP5khJv/3MfhAjpZZGcfvu/XnSVwy4oxMMi0T7bUNuLipQQWXpC5ceeWA47Jzqh7Xg24ycCYHOEgE3SQxX0sDerc04tJzLkG1AGVzoq+3R3k1FRivgm4yQGcdnEKsr1zH1/Tz0nVl1uM9bL2kL439JYTudhkkUk804lgV+/Xq9U4Dm0RQKwNyQmy3OE/YBmzR5tt9RjzKxew5GThPiPNSlQq62c9LXeK89HTivOQg5HkitIwvLxc336weZkVEnBMX6vU7QPsaERER+cPAGxE5ilRXaYMGyH7VrFli/XqOn1ABLXPbs/6BFWJuAauz5/XAmy+q2aprs80K3KLdyMnmqy/gsT0Of4nsO7MKzFksPziGQ17ZamePOvZFp7lZD7wNyYEVblZNozpiLhkWPdj7iryhBopm/RSujes6DgcfhVQGwhxGM5V/bkGwxM15cQSV5XOxdlUttm+tRdMeIzvGftMawbxZKrC4yyN7xXLDbCbnEzfU6pnZuW7/e2dgKZuPGqLI0YJgJ3DF5a1jZqmsr7i19HrATgamNqDXY3RQ6zpUYNx9+vFwyStb7fOjrutjlC3cwApRjLlDLN+jvFJOVZU2eMPV1za4ZsVdjZ3Q1j+n0HpeClcvw0fX8TOQMcuixQuwtroEUT8BoeKfYrasFnHMNrsFqNs+E3tFhs4TKc9L3oKfJ9KTqeV1dX+jHmWBzJIU69O0Zzm2yWbG8TPe50QiIiIacAy8EZEjI3h2+njQy/fUGWqBqKyyvvZjzsExNapoYEa2Wsfx0IMfTL1Tb9I2FEdujRbdoP3f3f219r+jL/q0G3Wv/oA8588gOQDE2q3i5nHzctTLPulkn0qWPtvsjBEKv8H5TOxnA0QPlsXxQyzFcaX6I3PPHlOBuaQMMWN6DD84DjCAxKiqloCdka32wXHTIA3BGGXzzlhz49JfnY2RBZiy/pKErJfh5OwxrN7Yjlg8F2WLZZ9uMhgj/rbKvt1cAnFGIKxwFrZpwRunP9Wc24Pf84Sv85KH4OeJ9Az08jJBHn7n9YdEREQ0RDDwRkQOfAbPVMZXX7c5Q8QYWMEjoBWgiabRbNVtYIVIkd58TDaHfXaF959lRFTHdQ8iwwHG0UzrV00NABE/g1jrYezcuA/rxJ/MkjOafg5/RvCnG1dT7Xa+B1awZ4ilDmA5NmH1nYnnJkDZnNw1R8tk886W87kMx7KErJfh5uwxPL1+J2rEsbOzVRxL8T50F/YH4ravKhG1OEwN9Hkig8szAo5ZIQOuWkax3OZ92sAP9Y96Dw5DREREA4uBNyIKKYp59+t5EJagmJGh5hHQmlqlN/3000TTyLxLlVVm778t+3wEGIeAoqIb1SMHRrbLoPYHVIK1qmP3/bv1PqJkP1OyT6Uu12aiZhns08m3r/GF1o1Y0JED/WV1SUZ/ZG7ZVzkqUJX0WW7TE9IMkLlSZQuZMeevfzc/orh+oX5estTdoNWLFHZ/SYM4dmQfh0+v36sHZTYeRkysgxzd9Alzn45G1mvHYS2Y5PnnZ0ACnzzPS47SPU+Y+NoOGVxeQh++yGp2tKnvuYHc14iIiCglBt6IyEEXvr4g/y/DLeXahCTmgQmOm/oGSgys4CJSvgYLtL5xYvjMrU+hhNRZZT3d+p167qy5rgM1RMqjya99ofczl7v4QUzVpyQrrnD9zETWXljFqgnTnnps9xjcICyjvyeUlqHWMTDV36l6d/ung98fUPwM3rEMjmCIYIJ6ZNWJd7WMk1ws9cruKI64vxZaD85rx0fAoF+GBlbQRjs1RvW0ZagZATv3zDGX4F+3/jznvgf1AJWTiRX6+jsxyhaSXt5UQa8uXL0o/y/DdXdpE5KYB4i4bOoDLnS9ZESA/eXs12KrCy6Bk2j1AtOIvFbRco9sNjlwgdGnoznodfZTnJALdD1PZFb/eekWVGpTbIqNJuQuAp8nnAQ4bjOyPKM/yuHVLJ6IiIgyh4E3InJ06j3ZnTYwpa4Bi8pNt3PFFZi3qgE12sAEyQMo6BlqMqC1BQ9XmwNXUUyV8yVGSm1InSlWPBdTtMW4DawgtB3Hafl/4RLUbK3BVNMNVcRY17otmGMPIJ49htPaHW4ZFmxdI+Yzl1Ff18c2r8R91SnCNqVVmGeqH32ZYj3UczeVVaoJkyA7Q8/4Ta8oX4sRmNpci7XlpuBecQlqty5XN/Bn0BJ08IRsKJyFJ2Q/VOqpvFmNli/EdrmeWqA22ZGWdv0mXvZPtXUhas1lNObfvBzbVpWoaZlz5L3UIz3aGX2I+R98oBDj7jcFuyZWYPymF5B3XyGufKDtvEkZcSmbS6rMr6vvH7MGmD4/hh9UUGv8pjUYM9G034vHY1Y2IH/DSoyvSnE8zKzC9Xf1vydHrPP1K2vcg3kaI9usDONMn59zV4VYD/VEudKun5fGrGjAeNNyZN1cL9ZR1o0s/2XbyKuh6yVD/O8vKjsOk1FvbhZaHEHtqlps00YqdiBHMa6bj217avXmpOL9ZlFxzOsZXLD1r2YMsqLOE0l9wUVQWS2Ooz0LnQNlQRmBPlk+ccxWmpalH68p+pMLcZ7oZw3Wm5etD57gsG3SWp5iDGDR8ZnjYC5EREQ08l0z8/Y7/qAeDzmTJkVx7tyg52FkDcs3vI308klTV72gstOcxBHbuAbvWH7Bj2Le1i3iximG0+JfLWiWJI7Tu3+NV9t81F35GjxWV6aNrGrpn81Ovc9NX0cjXttx1BIg1BTX4GHHEU91fR0HxHxuI56qsjqWUe9zzm00WKlylTEqntSH/Rv3+hvlT45gt3kWiuTIoSmbfomb9USAzYn7cqPV+k1+d+s+/6OaihvSJnVz70k2a9vRqZ70L8tR/Ax2tgP1iycjttthVFSjPtTTZPYyGnWSbtlLsFZ2Ou9rO+jGrHwB42fGcXnLGnybqjnjXWuQr7LarPT5r5TJIBNsnxXF9Zu2YFx+DJdWNjg2+dSy5WTgbs9DyaOCTqxB3oYlrplrVz84gEuNbiOeGstWT20cl2dirJed03x6PaonSZzqN816yYgA+4vHcST3yZai5eLckbz/yoEAqu/vD+g7clm+5zEoieNQjgJsP15CnSe8jlmxnNiFyShzKl865wmD5/lCfMaK/pGOM7I8wficVO/LDHV+g//zEhEREWUfM96IyNWpHQ+haXcMfXpyjS4ex+nWRjStsAfdJL3fs772l/Dq+g041BHXmnPqxOOOAzi0cY2/oJtgDJzgNrBCQlsDnt3YiNNi3cz05T2E552CbtLZJjy/wr6eQjwmbpI2iPncgm5SF94RZYyJec36xLxymV5BN0lma8k+l6Tu1kOOAaD09WDv+p1Yt7t/Wbo+dHccxroVzoGngdbVvFes4xl0W/YzcaOv+lY64palJGkdi+sdyVvmz3oZO9HcKvYaLSPGT9ZbwD7E3m3AJZXVpovjymuN6F2pB5Wcm2amOYDA503i8zdoy7XMfzGGy3s2oNc16CZ14dtNG3DZss7AVTHvpS2pg1lXW37tWF5zc1HDlcaH0LsnppqdKhet9WOVZr1kRID9pe2g4/Gwc+NOLbh1rttytkroatMHVtCPd+t7utXx5BaMkceg7Aduf4fq880gPkcOKrBOHIcZO47kMauW1a9/Oc1u5UvnPGFQy3aunxOWjLSMLA8lqJbBu3g7mrMedCMiIqKhihlvg4jlG95GQ8bb4DIyypwy64iGgtTZc0T9uL+MNnpm80Bub2a8ERERDUXMeCOioanY6N/tBH7LG1Qaknqwd5fsZ072j5WhPrBoBOP+MprIJqayO4HsZTR7KJyFaqc+64iIiGhQMPBGRIMsinmr5OAG6qkQKe/ve62v/ZhHc0+iQSabrsnmaEZn8WoykSPuL6NCon+4jsP++77LiB680643oy2rW66Nmq3/cV8jIiIaTAy8EdHgKn8QZaVlWLD5BTy2R/+rqVMDHsQP4DWvQRWIhoK2g1i9UY2wmunRaWnk4f4yKsg+Js2DyAwUrW+6pD4viYiIaDCxj7dBxPINb+zjLXNkhtuc+5f0j4IqB3Bob8HxZpdBEYiIiIiIiIiGAQbeBhHLN7wx8EZEREREREREXtjUlIiIiIiIiIiIKAsYeCMiRzKjbyQb6eUjIiIiIiKiwcfAGxERERERERERURYw8EZERERERERERJQFDLwRERERERERERFlAQNvREREREREREREWcDAGxERERERERERURYw8EZEREREyYrnYvvWhahUT4mIiIgoOAbeiIgoa6auasBje17Aw6sq1BRyE6nW62pRuZqQjvI12mfZ/zLy2SFltHwUUAS1W+vRtKcWtcVqUirlC7F98ywUyce+5omgslrMoy3H+GPQjoiIiIiBNyIicpVWsKS4BneWFmoPcwsmiNvy7NLXdQ2mqudepq5SwaitNc7rlQhc+fu89EXxs1myruLo+0Kfko5IkRYusYnhszb10FUFFmnlTvEXOJCa2fJRlslMt7rJKMIZ7Fx/EEfOqukeKlctR/1iMY9+yBMRERGRwsAbERG5SDNYcvYYTsflgzhOtx9DjzYxW9S6xs+jV01xF8WNBeph4QTkqYf9oph3f5n+0NfnZcJE5GpVfQK/9RHkSKWneQ2eXfGQ+tuAmNwOfspSPgdT1EMvfd2fq0d+ZbZ8lE0R1D4qM936sH/jQRxRU71FMEEdU7Hd+1CzYqf68zs/ERER0cjFwBsREblIN1jShXfWy8DPGrza3KWmZYta1wvnfQT49Pf2xbWoYJJI9eMoK4yL18UTX5+XAcUTkCv/z8ryAtRNW4MpYPcQmlr1Ojq9u3+a/Hs+6PbMavkok6LVC7BU7C/drYewN+hxH29Hcxu3MBEREZEZA29ERORsOAVLVKbW6feO6s+9qHL1tZ9AH4pwo6X/qgrMWVyIvo5uQAbnAmd2hXSzWqdsLC9I3djkae0GM9A8NJvlowwqQfVisaXi7XimmQE0IiIioky4Zubtd/xBPR5yJk2K4ty5bGdJDB6Wb3hj+Ya3kV4+rbnk1i0ou9CIZ1uAeVVVKJP9rcVjiO1qwDuoSJ5mz26R/ZzVlaGvdYO/DCf1/iTxA2ha35QyeBcpr8Gc+2djSqEM9khx9HWcwHstTTiVlHlTgUVbq0zv9RLDoRUNOKWeGet5uvUAchcvQd/uh/Cq6vtM9hNXs7gbh3YDC+R7TK8lFEcxtepxrf86LTApyTp85SW80+ZVT2K+Vdb5+joOaOXrnSOXW+i8PCEi1vm++8v0zDVNXKx/C443H01dr1qZRC1sXJO8jT3J/t5WYoq9/lyFL18oxSWorSrD7NJcfQAAoTt+BideOYG9SVlXcnCB5ViKdqxbf0ybt/rRMpQVqjWN94ntdwhPZ2w+E5f1bNnl1HeadXld4nnlqgWoMs/b0Y5ndsjXnEQQLZ+NJ+7v72tNvr+lRax7VT3qS2Xz0b3umWzlC9FUNxndrfuwOmDgrXKV+PwCY72JiIiIyMCMNyKiEUk1L8QcLNq8Ug+wSYVlmFK1Bg/bppVVJXeWb3TQ39ft7zbauUN/Mb+f/t3K16CmboktkFaI3NIlWLC5AYvKo2qaIrPWfAXdBFvfZvp6xtF3/Dz6xKPcIuOzVbZb60vAnTKAmDwYgQyAPbx5CxaYg26SrMO6LXi42raehuIaPLwneT69fGswR+tLz2nwAxlgfEHUjTnoJhViyuKVqHEbHMJEz1rrxteBgm6CkfHYcTx10C10+cKIoHZVLZo2z8dSU0BKKiqcjKV1y7HWbTCQwlxUi3m3iXkTwTNJPC4T8zWtKlETbELOF612X8/6zfXYXu2y9cTnTiouwdqty1Fvn7d0FrZtnYvkPU0P2m2TgyKY9hX5/vrNtagy+jX0UHnnZPFvH04cDxZ0S5DrrR4SERERkY6BNyKikcgImpSWYUpHI5pk31y7Y9pLuWJarm1aMmNgBf/BEmuH/v2fnTpwZwxmEMfp3RtMn7EBTeIz+mSQqe5xzDM3CT3bhOcT72vEaTlNZtYlppn+LNl2RrlkIOpzvR83ZeoqPbvrvWbogy/YByPQgoOi7sTDPqP+tD+xnq2qbhfb1lNTgUWbl+jbQ6zjoY3966aXT2wjuUpJgx+ojLNCmd0mlmea79mNjfqACYVLMMdzxNkK3FIq/vMTPLPz3Tw0bPlCKp+tBbJk1tjOjeaO/PdhZ6sMpQJldQtRqT2ym4wyOW9Hu5g3eT6UzncJ2oWYr3whtslmm6IGYq2HsS6xnjuxbvcZsQcCRYsXoDZpf5FkYE4G+fqw3zRYgZxPUzgL1bblyVFFZd9s2vLM82w8LPaVXB+jjRoDJHyD80GDtERERETkioE3IqKRSAVNtGDUDtUc8Qs9w8syTUkOrhgDK4QPliQyy/z2DxY/geOWpppd6GlrwPMrNuCQVzPJQH3RJZcrt2iilrF1Z6moh9aXcMpxMIIKLFLNaGVzyect9SfWs7lBDURQiClzrLlIekBP6GjUgoDmZrNa+bTglGBbfyMQKMv+qmxSai7/2aN4Z9cBbb7+jD0HRn92IfpW85vxGLZ8obUdxLqNO7F6vWyqaf7EHhxp3oudHfLxDZjgGNCC3oxyxzFTM099vnVG0O5O5+y1YPNFUHu/zB4DYrv34unmTkvzyy5RhtVaEC0Xs+e4ZL3JwOKKvZZms3I+vXxiTysyzVc8F1UywCpqWjYlNTd97TrbiafX78N+U5DZ2Y24WTs2+nBOn+BTBNHqhfryA89LRERENPIx8EZENAIZQZPTr5iyvVQwzjzNNbgSKJjlRGWW+RoRtQtfXxD/FS7BfasqEEkKmHQ59PFmYpQr0MAKsvmrWq4wtUpmbMlsN1EPDsGqSHWVFlyS/d259VHWc1wO1qACeQYV0DOCnW7sy0tkqqEMCza/gMf2OPwZWWZeEllr3sGzZD4zHkOXLz1dxv5QHEFl+VysXVWL7Vtr0bRH9mMmX8jFzTdr77Bxb0bZdVzPQkPBjaL0dgHnK/4pZmtBLDnKpz4pSdtnonaBolk/dVzeftkHnHpmdq5bD/RZ3Kyao3bEgo9EGlbxXGwX9d20Zzm2LZ6MovgZsc7s342IiIjIjoE3IqIRyGk0yqlav2XWafr7HIIrvpsZunHKGnN3ascGHOqII7d0JWq0QFMDFlVXIFX/ZZJTuVzZAlG93XGgoMqU7QZE5sxOClYZ9Xn6eLCwQuKzPPq5cwx+qpFI06XXTZi+1fxlPIYuX5qiMti2tR5Nm5ejvm6W1gy0yNz3WjrC9lNmns8IhBXOwjYtOOX0Nx96DmX6okU3aP93d3+t/T8YZPDxvP6QiIiIiEwYeCMiGnGMbClzh/pRvd8yyzT1PofgStrBEhU48pWFpunCqR1r8OzGDTjUqvp1k4MHaAE4j6aUjuVyp5erP0jX090NFBYiN34Ar6mRW5ODlj6X4RCsTB2wc84sM+pfNmtN9Ovm8uc+4qxa7zDNhX1mPIYtX1pk32ky2KYt+ozWf5rs622d6u/NaIpJWXb2GFZr/cjpfd1pA0Y86jToAxEREdHoxsAbEdFIYwRNLB3qqwwm8zSP4IprJpxP9gCXb2e7cKpZ9uv2kDaAwOm4DMA5DVhgcCiXK/PACvoU2e/d6Y4YYonmt0awyk8TWTNjgIigwUrvzDLP/ttSCpZ1aJF2xqPBX+acfyVYW6ePvKkNOrD+oNZ/muzrrcvS31sIRpZa0H7KnOb7ok/sZULH4cQgB65/6zPXPLOo6Eb1KIyv8YXWTWHQjD9T33oc1ZSIiIgoCQNvREQjjVPQRGWgWaa5BlfcM+H80gN3frLQKrBI9uumnlmcPYpXX5G9YBUi17G/LsEIHvriEAQ624RXdzTgnUSA0SlYZfQFV4ZbXEYQjVQ/rjKwDuB4UrDSbf2j/QMT2IJjWiaekDtrrmtz20h51LsprtM298lovuuvaW3w8iUpVk1H99Rje7WPBsbxM2KbOX1iBBPUIzfOfb/1D4bQ3f6pYyAs0HxnP8UJGcQqLXMZtTSzEv3Mld7iPJprsRo4wVMPzmv7ufvAFEREREQUHANvREQjjFMzUb/TND6bGbozmmaW4U5TM9FIeQWm2m7otUELZL9uWxuwyB5IKq7AIpVFllJpFeaJ+Q0RMe+8VTWYqp5rVLm8+iNLvMcWrDr1ngwAAlPq9PVM0JbTgJrFWtQNsV2mwSwErQ85YUrdGkvZI+U1WLR1CxZoTYKTl4e24zgt/y9cIupGlMM8r7HMui2Y4xIINJPBu8T8xVFMNa+/I//Nd0OXz6aySjUdFYoWL0gdrCqchSeqS8SaGiKIli/E9q3LsVQt01kuyupqsdY8b3EJauV82vLPoKXZae8IOl8P9r6ij1q6dLOaz1KmCCqrxfruWegcKAvKCPRhMuq3is80LUurl83++pM78l6KkVaJiIiIKLBrZt5+xx/U4yFn0qQozp1z+t15ZGD5hjeWb3gbyeWbuuoFLCiNI7ZxDd5RgRN9WgyHVjSoJplRzNu6BWWF5mlK+Ro8Vpf6Nl32P+Y2wmek2ghGWTnN4/behI5GbcRM52CZUQ711MayPFUuP+vt9B69DtWTJNb67leBRXtU1pddXNR9exEWLIbzvCm2Q5+ol9dc60VyWbYcgXS9OUDoXYcJSfNJaZTPpHKVMRqp1If9G/e6js4Zra7FtsUueY7xM9jZDtQvnozY7p14OrENI4kgmYwVagmZSZyWG3Y+nee6StpIoAdN8xrLS/2Z3a37sNoc7JOjjG6epTd7tZN94V2YjLJS77rVmvLKQR/i7VgXqAmsWm8EnY+IiIho5GPGGxHRiOKUreTUyb5731tGJpw37/7bepp/rY1S2i+O062NDs0w5XvloAqNiIn396lpUl9czLN7g0fQTerCO+s3aPOa9cmgz0Zr8MxPv3PJAyv0O7XjITTtjonPVhMkuY6iXE0r3AJLR/GqKluCUa71DaruXTLL2hpUP3e2snUc0Mr2vGe9SHLZB8T86qkg6yX2ij3jT+0LqThmQKZRPpMjLe2IqY/obj3kERgSW7x5L9btPqMFwhJkAEv1+XZEb6Xrog8ndu1Mmr+7ox07PQNS4eaT61qz8TD2d6g+3wzxPm1QiHVifb3KGogc7EAtq1//cpq7zdPddKK5VbxPyyhk1hsRERFRJjDjbRCxfMMbyze8jfTyEZFZ6kwyZ2HnG87ClJkZb0RERERumPFGREREREoP9u5qR7fWP13APugKZ6G6nJlyRERERGYMvBERERFRP9lsVTarNQZrUJPd9eCddr0pa1ndcm10Wv0vQ4NHEBEREQ1jDLwRERERkVXbQazeKDPfhFSjzApa33uttr73iIiIiIiBNyIiIiJyIDPf5IAVPvu262o+KN6/EzUrjD8xr3qNiIiIaLTi4AqDiOUb3li+4W2kl4+IiIj+/+3df2xTZ77v+0+HdCcDLcQkVSeGEtMWZjSjaQmZUHoRkXqHdsQwKkicoKRX9wpdqaMSzRQJhAT8Q/mncITIFd1bAZWzJe7V3U1EphL0DBvNwD7VDacHSmpSzekcaegPHKbY0ynBgV0Ysnc4vetZ63FiO3ZiO3ZiO++X5Hr5cZaftZadVP7wfZ4HAICZR8UbAAAAAAAAUAAEbwBQhkxFXzkr9/MDAAAAUB4I3gAAAAAAAIACIHgDAAAAAAAACoDgDQAAAAAAACgAgjcAAAAAAACgAAjeAAAAAAAAgAIgeAMAAAAAAAAKgOANAACUiQq1bXlM3b9cqLYa2wQUUG3LYf3qxDv6+RrbAAAAkITgDQCAohQLkZzblnkK2FYtm++1Obddy2wbpoF9P+Lfi4LgfS8dAS1bWefcRxT90mvJFy/Q26nv28cAAKB0EbwBAFDshkYUsptjHujLW3YT5Yn3vcg9IZ+bu/Xp0wGvJT9soBe5oUHbAgAAShfBGwAAAJCt+kXymfu/3NBNtyFfbKCX99cFAAAzgeANAICiNKIbQ3Yz3q0HCttNTKc5WlxtNwsqD+97/WrtOtCu7hPt6miptY3Iu8Ve8BYN/9l7nC9rVulJ5+6Ljy54jwEAQEl76JlnV3xrt4vOkiUBXb8+fpBFueD8ShvnV9o4v9JW7ucX0/zSY2oPSOGPo9pxecRrrJmnjs1z5dewOt++o16v1RN7buiedp+8m2KYopk/zKeN1Q90+t1b6ho3jq1CzavmalOgUv7RkOmBwqG7eis4rNBE495qKtXWOE9NgTnOsXnCQ8M69S/OMabZL7BqoQ6u0NixpHqN0B299Xunb/vYU6HAsrl6vWHsOMOhezoVvCs1mmuW7vwcaY6zr/+euj611zhm2Xx1xPUxIec4W53jHCeb/qys3/ckzdvb1d5gHyiq0/u61JXXoZCO+lb9b/tflq//qP7hSKqAKKDnD7ypxrqgzm09rD/Z1pjaNa1a9YsmPVlnSruMiKL9ffroVLf+NMmx1q7ZqZ/9otGrCnNF9MWZU7rccyFthZiZM611gxTct1MXzevXr9XPX9s01n/EOc5jznGO6zug72//tX7SUOdVtzmi/e+5xzm4yrxmnb44/or++QP75Kj0+/1p8U796lX/2LHIOZYDcccyodTXM7v+clWrtgNbtFFXtHvPJed3stb5rL2oTQ2+sc92/xW9dcQ8l0b9crVtalRT/D6Ra+r7bZ+6Pkh897zP8TV1bu3TIqefjc4+5vMcPN6lQx84xzKuzd0tUZr+Th07q94pXQsAADJHxRsAAEXq+tAD9z4SjQtoBkcUMffOc9fdhnyp1K4tPrWvSA6a5sgfmK+Dmxdq16oK25bIBGjdm+drY1y4ZPirK9W++TF1pNkvXtrXcG7JoZsJDw++kHic/sBcp6+F2pQ2JHP2eyn9cW58wZdy0YKMQreUcuvPmN73PUeTVnvF5j9LMU/Zmp1qffXlpKCpTr6Gl/Xi/sP6+Zp0y1eYgOodZ9/40M2o05Mbtqn1QKvS1ffV+M0OYd0asAsX7N+W2L/ZTA5iTLh44k29GBdmGd5x7tQqd2GFoD5PDnwm3M85v580Oo+8Y3GZIasZhW6OVNcz2/6mqs6nJfXLtevAFrXHBVqGv2GlDh5YrfHvoAnK2tS9f50bliXsU7dUG1/dol0pV4at1iYT9rkBm+FT4y9WO6+V1PbqejXbRzGBlvT9te+nGhQAMH2oeJtBnF9p4/xKG+dX2sr9/EaZlSxfqFTw/a916FPbZoOnjUpR1TaFijev+myONDSszoQqtbHqMoXiKrBi7DGayrjgx3fVc3msOi3gPPe6Ccic51JVoMX6DIaG1RhwXsPt+57Td6wPp++akYRKu1g1mNvf+3ec6+L9bKCmUi0/na9GNyhL0Z89Tq8KL7GP5lXz1W7OfcJqskrt+qXz+mmvbZKp9Jft+57MDDV9baUa66TwmZPa0ZP/mcK8CrJ01V6OtBVxsUq4iLPv3zv7jn5aVLtms35mQjVFUlRnrdXPT2zTk7HqtssXdHM0uFqr51/b5p5vuuozt0+9p+7fLnKDu6hzXL87FXuNgL6/RvrT6LEYsf4ckfd07thYJZ5bcecep8N5rntPd1ylXa77xdj90z6fbKr9ZcNWvI1mhFGdPn5utFItsGa9Dr661N0OHu9MrEBznut2nvOqzfrUOxA7klo1t7yo9g3mKE1129nR34exys1Y1WZ8/+PbEvq0/bnVcGeC6um5OvZ3yXnudec5/+hr2CcAACgQKt4AAChqaVaxHEq14uXUmSGbiUNDnX4+vaMdJ78eH7qZMMgEco7g+7d0KC50M9z93jfDL+eo6an0VW8mdDPDKltPmsAvvo/E0M0Ei5ts6GaCtVjoZoQGh3XopPNFOtX8aIZzLLvfdc4hRR+9l2+p0z3wCi2qcRunbsr9TeF9H7ikQ3s61bq1syChm+FVkEUU/dJ7PM5kFXGRPl1OCLpCuvnBYf3T1r06Ny50k76/3YRLQfe5fzZDSuOfH7igi8feU9TZ9PlTVcvZ6js16Wev+vXF8b36pyPxrxFKCt1i/TlMcLhnLMwy3OM8HnT7S14AIZP9XOkWTshywYYp95eriAnJuhKGh4Y+OKvOfm+7zp9UTeY8t3uf83ncY4Z4xh/JTfX2dNn9qrWo3m1MED5zzoZjN3XxinvVE9pu/MVtilOrtl/EAsAuHYoL3QxznDuOX3O2fGpaRdUbAKDwCN4AAChWn95R69vJlWIj6jr5der5xKYg9PmwO3m/f8V87VpVqUAmAVRNpZpMhdnQPfWMVmYl+XRY5qu/P+C8ptcyXuhOilAvhYV2yGbobur52yYxGuLVVKh52TztemmhOrYsVPcvY1V0c7R4ofsTeZFzf9P4vucmoIXfc+4iffo0LuiJ9313eKMJ3pJjwpBumaCk7mX9bPta1Y4LWkIJ4ZFnrZ5yK58a9eL+d/SrEyluprrO/dkUYmFWXZ2ix3fGVdmlUd+qn5j+TJVYyvnrPOOCxQz3M9IunGADy4wWVshHfzmJ6rSZI80+inc97AVjqYRi72t9rZrXrNau7W3qONDmLgLiVbb5tHix+xMJIuHxkWF827g+659Wk5sLX1FPqmpM44PPvb9LK59O/3cJAIA8IXgDAADS4F3tePeegkNz1LjCzOn2mBsQdW8xc7ulCeJiQVj1XB00P5vyNl9eBJNe2M5pNpmAz6uay/TnkwVM+LXFOabNPrW/MFeNZu61ajPkszCmu79pU79aT5pgI20VlQ3m0lTE/enIXp3rj8jXsE2tbpB2WD9vWZt2frbYKp85i1XfndmbelhsktpVTd7PX7mUtkqs1u/NGhYfLGa+X/pKQS+wnKCSME4++ptOARO2mdV2929R+6sr1WjmXqszZ5Bni+2cbnUrdfCEt7rv+Nu6Sf8uAQCQLwRvAADAM3hXh0xV1btRdX48rODQA4Wrx4K4jpcmqFordsucczDhl1uh55zbx3fU6ZznbufW+vbXduhnHk13f9Mp44UV0lXEhfSnIzv1D/v26twZM2TTLo7gBnDjP2GxkMvM3/YPWye+/VPP+AsbC7O+uJzZRY8No03/8wEtS7GwQub7pVvoIBZYZrYQwtT7m0bu/G/evINmmGrwzHl17jup3c7NDImODVEFAKAcEbwBAIBEg2Yesjs6dPKWdrxtgrg7Cg6Z4aLz9Xr8CqW3HrjDU81QURMmTXjLZEGCDGVfNVapXS94C0Ccft+bS87MR2fmXgslzL+WAafvJXYzvTz2V4RSVXvFq41VqE02r9hASH/qMfO6vaJ/2HdUX0RMAPdrPZ9ini8j9fxtk8kuzMrMBCu2Tmiy/ezz/Zf1J69hinI9znxbrl12oYPTx0+qdc9Zd941M9dbKGG+tzz5Mur9Xeo/74Z6E972XMrb3yUAANIheAMAoFwMjihi7tOEQ4FV87XRXfVzvMCyCarZzMIF/d7cYgmhl9PeZxYzCMxTW74WJZhAbB46BSrV7LYkqZmjxWnOzzU0rItxCzKMqdAiuzW5LBZgyEt/OTCrmpohfSfa1dGS/8njJ1pYwV3t9NXY/G7JFXFr9XMzr5t9lGDggv75t2bWrTr5kub5uhl233X5Vq5OOxy1dk0gzXO5hk/jj8MTGFvQIGWwmOt+jthcdFmZQn8xBf68jIpc08W4xRjG1Ob392HgM/WZP4QNjWpLE+ICADCdCN4AACgbD/Slu6pnpdrjh4XWVKjtpYU6uCJNpVjNPL3+wnwd/OVCbzip8/PxAjWxCq7k+dVG1OUGcnO0cXOqueAq1Lxqvjp+OT91UJatWNBnzm+L85pxfQWWOf1snmQ+ueq5et0co31ojs/db4tPGyctphrWh25pjHOuP52X0Le3eEKKVVun1F/umjfZIX0O/4YXCxQ+1KlxU1yIVr9WPz/wjlo31OmLfjf+HVcRV9uySU+aed0OHNbPk4Mys/8v0rx7H1zWF+a+7mVn31Z9P+58ap39nt9uwr43tWqNbYyX5SqhxmDYO/4nX92Z2NeaVucc39SL7kIA44PFXPcbp2GTnneuT4x3js5528cx+epvej4vjrqVer1ledzvQ60Ca9ar48AWbbTHmh831fVbb9XSjfvbtMv0mXBOtWpucfo9sT4/f5cAAJjEQ888u+Jbu110liwJ6Pr18i0A5/xKG+dX2ji/0lbu5zcly+ar24ZkycIfR3Wq2qf2wAOdfjdx1UyzEEBLg52TLJ2he9qdYshoYNUEoZ4xNKzT/3Jn3Eqksf3McWW0qqlRM08dm+d6k6cnM3OpDVWqMdX5TXSMzn5mzrX2FZUKvv+1DqVboXWivuW8xtt3Rld6zEt/OWreHlsl0ojq9L4udeVzjq81O/UrW9WWKKLgvp36dNVhtW6Qu30xqV+3Im6DTXlS6T/qrtA5LiRL26cn6uz3uwn2MwsrpJr/LbW1+vkJWy2WLBLUuSt+vZjy/HLdLyag5w+8ORqCJTNz3CUuDjHV/jyZf15q1WZCsrr0PxNoadPBDT6Fz5zUjp6xdyPWnlLkmjqvOL8PG5YqeLxTh+w5xo4rvi32OpO1GRP2aTj9mtVZ8/q7AQBAClS8AQBQTj69o93vDyvsVoZZJuh592s33LqeZkXQ0Kfewgq73zcrmyb+TNgEZ+9HU4ZuRujyLXceuNMhO+dbjPM6ZlGB3SfHh245c1df9foaM9ZPT7rzc44x1XWJzcHWG7VtE7F9p74+90ZDNyMv/eWo99QVBb1iKIXPnMt/sPDBYXdV0jERfXHmqLq3egGPNxQ19ZxqN3vMogpHFXT2j78E0YjzGsf3pg7dDKdPbx64+H5N4Paezu17Rf+UZr/J5qNL7YL+2R7jqNjx7Tlsh6ymOr9c94sJ6eKevYn7O6ImRHPOcfyKrFPtz1Pwz4sj1NOl3cevyRbpeUzwZed86034w5Efps/Wfed1ut/O+RYTibqLO+x2+iV0AwBMByreZhDnV9o4v9LG+ZW2cj8/AAAAAOWBijcAAAAAAACgAAjeAAAAAAAAgAIgeAMAAAAAAAAKgOANAAAAAAAAKACCNwAAAAAAAKAACN4AAAAAAACAAiB4AwAAAAAAAAqA4A0AUHKuXw/ZLQAAAAAoXgRvAAAAAAAAQAEQvAEAAAAAAAAFQPAGAAAAAAAAFADBGwAAAAAAAFAABG8AgFkn0NKmju3L7SMAAAAAKAyCNwBASWre3q7uE7FbmzoOrFdzvX0yA/6GdeomfAMAAABQQARvAIAy4JO/bqna969Xs22ZSKinS7vPRKWGdepoqbWtAAAAAJBfBG8AgJLUe6RTrVvtbd95nY6Y1motyrDqzYRvnf2Sf8OLasuiUg4AAAAAMkXwBgAofQNXdfFK1D7IXO+R8wrKp42vrVbAtgEAAABAvhC8AQDKQig8ZLeycVU9Zshp3Uq1rLFNmahfrV0HvPnlGKoKAAAAIB2CNwBAWQj4q+1WdkKXryns3Df+JPOFFpo3rVRjnbfNUFUAAAAA6RC8AQDKyJBuDNjNTA18pj4zP1zDUxktzAAAAAAAmSJ4AwDMcjft/HCZL8zQe+qKgu5iDlL4zDl1ZRv2AQAAAJgVCN4AAGVkqdoPrFZzTkM/fVq82G5OZuCSDu3xVlTd0XPTNgIAAABAIoI3AEBZCPWcU2d/VOG6lWrfn93CB7ktzAAAAAAAEyN4AwCUFb+9BwAAAICZRvAGACgPa5rU3uCTItfUue9kVsNAc10RFQAAAAAmQvAGACgLXngW1eljZ9U7kMu8a1F9+aXdBAAAAIA8IHgDAJSRId3IeoXRWj2/0ufcZ7Pvcu06YOeR277ctgEAAABAIoI3AEAZqdaibFc0rX9aTXXOff/n6vVaJhVoaVSj2cfhb2hUW06rqAIAAAAodwRvAIBZLbBqqbsgQ/Cjq15D1nxqWpXZ6qkAAAAAZheCNwBAWQiFh+xWNparZYNZkOGKej6wTRkI9QQVjNgHAAAAAJAGwRsAoCzksjJp8/Z1anQXZLikkG3LzFUd2tOp1uPX7GMAAAAAGI/gDQBQ+upt5VoWAi1tam+QwmfOqSvrBRk8sZVU+y7nsooqAAAAgHJH8AYAKEnN271VRd3bflO55ohc08UMQjQTuh00QV3/ee3oyTE0q1+t193XCOYc3AEAAAAobwRvAIAyEFW4/4o6sxgyGu4/r9YjuSyoUKtAy3p17F8pf+SaOnN6DQAAAACzwUPPPLviW7tddJYsCej69exm3SklnF9p4/xKG+eH3C3XrhPrVNd/Xm8duZrl3HAAAAAAZhMq3gAAyMpVHdraqR2EbgAAAAAmQfAGAAAAAAAAFADBGwAAAAAAAFAABG8AZqVyn/+M+d0AAAAAYOYRvAEAAAAAAAAFQPAGAAAAAAAAFADBGwAAAAAAAFAABG8AAAAAAABAARC8AUAOAi1t6ti+3D4CAAAAAGA8gjcAs1bz9nZ1n4jd2tRxYL2a6+2TGfA3rFM34RsAAAAAIA2CNwBw+eSvW6r2/evVbFsmEurp0u4zUalhnTpaam0rAAAAAABjCN4AzFq9RzrVutXe9p3X6YhprdaiDKveTPjW2S/5N7yotiwq5QAAAAAAswPBGwAYA1d18UrUPshc75HzCsqnja+tVsC2AQAAAABgELwBgBUKD9mtbFxVjxlyWrdSLWtsUybqV2vXAW9+OYaqAgAAAEB5IngDACvgr7Zb2Qldvqawc9/4k8wXWmjetFKNdd42Q1UBAAAAoDwRvAFAgiHdGLCbmRr4TH1mfriGpzJamAEAAAAAMDsQvAHAlN2088NlvjBD76krCrqLOUjhM+fUlW3YBwAAAAAoegRvAJBgqdoPrFZzTkM/fVq82G5OZuCSDu3xVlTd0XPTNgIAAAAAygnBGwBYoZ5z6uyPKly3Uu37s1v4ILeFGQAAAAAA5YzgDQCS+O09AAAAAABTQfAGADFrmtTe4JMi19S572RWw0BzXREVAAAAAFC+CN4AwPLCs6hOHzur3oFc5l2L6ssv7SYAAAAAYNYjeAOABEO6kfUKo7V6fqXPuc9m3+XadcDOI7d9uW0DAAAAAJQTgjcASFCtRdmuaFr/tJrqnPv+z9XrtUwq0NKoRrOPw9/QqLacVlEFAAAAABQzgjcAmKLAqqXuggzBj656DVnzqWlVZqunAgAAAABKB8EbAFih8JDdysZytWwwCzJcUc8HtikDoZ6gghH7AAAAAABQlgjeAMDKZWXS5u3r1OguyHBJIduWmas6tKdTrcev2ccAAAAAgHJD8AYARr2tXMtCoKVN7Q1S+Mw5dWW9IIMntpJq3+VcVlEFAAAAABQzgjcAs1bzdm9VUfe231SuOSLXdDGDEM2EbgdNUNd/Xjt6cgzN6lfrdfc1gjkHdwAAAACA4kXwBgCuqML9V9SZxZDRcP95tR7JZUGFWgVa1qtj/0r5I9fUmdNrAAAAAACK3UPPPLviW7tddJYsCej69exmTSolnF9p4/yQu+XadWKd6vrP660jV7OcGw4AAAAAUCqoeAOAaXdVh7Z2agehGwAAAACUNYI3AAAAAAAAoAAI3gAAAAAAAIACIHgDclTu858xvxsAAAAAAFND8AYAAAAAAAAUAMEbAAAAAAAAUAAEbwAAAAAAAEABELwBAAAAAAAABUDwBgAAAAAAABTAQ888u+Jbu110liwJlPXKipxf6Wve3q72BvtAUYUjQzp17Kx6B2xTMXlupx7f2mgfjLl/4hXd/tA+KBu1am5p0qaVS+Wvs026ps6tzntjHwEAAAAAUGhUvAF545O/bqna969Xs20pJhV1frsVL6jhsgvdTCC6Re0b4kM3AAAAAACmHxVvM4jzKzP1y9X22jptrIvq9L4udRVj1duogB55403N03safKNbI7a1PNSq7cAW532QgsdP6tAHN207AAAAAADTi4o3IF8Grurilah9UOye0JzHnbuvbpRZ6BYnckU9hG4AAAAAgBlE8AbkUSg8ZLeK3HOrVOXc3b9ywXsMAAAAAADyjuANyKOAv9puFV7FcztV88Y7evxo7HZYCzatVYV9fiLefG8RPQh7jydT8VyrFrxxOKGvmm2tqnrC/sAEpnKcubmpG3+xmwAAAAAAzCCCNyDvhnSjoPO7rdWCN95RzdZGVZjhoqPqVPWzbap5o3XSUKuizqw6ENbIn73HEzLB2daXVfV4/EoFdap45mUt2HtYC54L2LZkUz/OKanzaYndBAAAAABgJhC8ASVlrRYc3aaqxyO6/7ujGnzzFX21zd7ePKq7Xzk/8vjLmvec99OprVXlM87dHy7rvtcwgYAeWd/o3Dv9ndg71te2vRo8EdSICdG2/lqPjKt8y8dxAgAAAABQ2gjegLxbqvYDq9Vcbx/mUdW2bapSULff3Knbpy4kVqz9+YK++cf33MUSKurSVaE5nljkVpqNRDIpd7O+6tPdD+NXqA1p5MPDGty21z2Wb5JeKi/HmZNaBVrWa1ODsxmJ6rrXCAAAAADAjHjomWdXfGu3i86SJQFdvx7/Zb+8cH7lqFbN21/UpgafzCxqRvjMSe3oycfqmraKzD6ayMjv9mrwVJpr/9xOPb61UfdPvKLbH9q2CVRte0cLnnFe8w9Hdfu3SSFaSnk6zmzUr1bH/pWj11yRazp97Ky6CjrkFwAAAACAiVHxBhTAaACUT3Yl0qmqWmmGjgY1nEHoZtw/ule3/xBRxTPbVLM3g8UR8nScU2HWjLjhbQIAAAAAMGOoeJtBnF8ZWrNe3a8udSuuOo/1qXcgH5VunopNh1Xzs7qMK9VSC+iRN97UPL2nwTe63eGeGXsioKrGzZr3s0Ybupn52/5et5Mq1vJznLmqVXPLi2rf4HMO74p277mkWfYJBAAAAAAUESregDwK+Kud/0bdYY75DN3iTW1etCc0x6ww+tWN7EI3488h3T9l5nXzFki4/5VZnTTVwgqe/M/flomb6u3pUme/s8mqpgAAAACAGUbwBuTdkG4UYG6xkYgZQClVrFiddphnxXOB9ENADTsMNLOFFdZqwbY0Q0r/fEG3zwadjTrNSRpXm5fjBAAAAACgDBC8AXlXrUUFWNFUH17WfXP/+MuqeaNVVXGVZhVPrNUj2w6rZuubmvecbZyACcVG9zdDSJ8bX51WsWmTqsy8bm8c1oLkoMzpb8F6M1dcCnk8TgAAAAAAShlzvM0gzq/8BFradHCDdHpfV2FW1LQrkqbjrjx69MIEw0jTrDj6Veo532LztaXl9DeYqr8pH+dU1KrtwBZtFHO8AQAAAABmFhVvQB6FwkN2q0A+PGznV4vYBs/IH97T7TdfSR2CJbjg/Nx7zv72oWPkq6Dunr2Ucr+RUzvd/u7+IZLw/IjT//0Te9P3N+XjBAAAAACg9FHxNoM4v/JT8Io3ZICKNwAAAABAcaDiDciX+uVq2eCzDzDj6laqZU2tfQAAAAAAwPSj4m0GcX6lr3l7u9ob7IOYCJVWM82rPEwOQa+pc+tZ9dpHAAAAAAAUGhVvQN5EFe6/os5jhG4zLdTTpd1nrimcOMUcAAAAAADTioq3GcT5AQAAAAAAlC8q3gAAAAAAAIACIHgDAAAAAAAACoDgDciRGUoLAAAAAACQDsEbAAAAAAAAUAAEbwAAAAAAAEABELwBAAAAAAAABUDwBgAAAAAAABQAwRsAAAAAAABQAARvAIDiVb9aHQfWq9k+BIByFWhpU8f25fYRAAAoFwRvAJCLmp16vOmdcbcFNfb5mWYCqxPt6k6+HVitgP2RordmvTr2r5TfbNe7LSiYCrVteUzdv1yotil/hmOv9Zg6VlXaNgCZ8DesUzfhGwAAZYXgDQByUFHlxkFJghoetJuYGhMcvrpUfl1T556z6h2w7QnGAp7uLfPGAsVl870257ZrmW1LIbBsnnZtWTj6s+bWsWW+moslPJ0ye33ir810qKlUU7W36V9RSbXitJuh9x1W7n+XQj1d2n0mKjWsU0dLrW0FAACljuANAHIwcmOnvup7xd726u59p/H+DY14T8+8gUvasbVTraO38wrap4pfrdpeM5VuUZ3ed1a9tnVCQyMK2c0xD/TlLbuZJLBqoQ6+MFeN1XNsi8dfXan2zY+p46VKQotcDQ6rb8jbDH88nNn7B5SjLP8uGSZ86+x3/hZteFFtVPoCAFAWCN4AYMqe0Jwq5+5vRRS8lbBAy4vaWCeFz5xTV8pKtylaNl8HV5jA7YGC70fV+vbXo7fd799TcMj50huYp+fLpvJtuo2o66R3PXdcHrZtADLVe8T8Q4lPG18roakBAABAWgRvADBVNatkcrf70QveY0zBcrVs8EmRK3qr56ZtS2dEN2xlVYJbDxS2m6k0L/XmHQt/fEeHPk2MSkOf3tWhk1HtfveWukp+2PAcLbZDPjGb8L7PrNz+LiW6qh4z5LRupVrW2KZM1K/WrgPefJ4MVQUAoHg89MyzK76120VnyZKArl8fX6RfLji/0lbu55esYu5aVfk3qdJXpwrbNhJ9T7c/605f5TU34Ozza82L20f3g7obflffDKa6dgE98uM3Ne9vR/XVZybEcvZftFnz/I1xfR51+ryQss+KmlbnZ5tUVVVnWyLOz/c5/XXr/j3blErWx5moYtFh1filu3/cqW8m6idORc1OLTDnZRI7V0T3w6d090bqc5u65dp1Yp0aI1e0e8+lFMOfxgusWa2WX6xUY+xyKqpwf1BvHbk64f6BNev1+i+Wyj+633jhMye1I1Ww5uzb/erS9M8naX7pMbUHTIgW1Y7L9srVzFPH5rnya1idb98ZN9Qx5T5ZMHPDtTSYYaq2Qc4X6tBdvfX74XHXxevLHMc9LXppvjYGYpV2t3To0wq1jWtzd0tUU6m2xnlqcn4uNrNgeGhYp/7FObfkcHDZfHU0VMqfSfASuqNW55g9Zl4qnzZWP9BpN3SscI59vjbF9xm655zj3aRzjO1nHyZJf43tfrqn3SfNa2ba35iAc66vT3Kuub7HRuxzEnz/68T3pabCrUIKDSa+rvfzsetnG41s3r9cr0vO73v28nFd3KHeKzTWluoaOceZ6ncqm9+/mfqcxa5RNn+XxjHzXJrFZfrPq9X5m5uJ5u3tam+wD9yh+l2FqRoGAABZoeINwCQCqnr6sGp+tC0xmHJU+F5WTdNhPTLXNsQxwVLNj97UgqR9VNWoeU++qZpF5itakrmrVVkljfztz852q/Pazv5xoZtR4dumBan2Nf09+XJc6GY4fTvHuOBHh7WgJsU+jpyOM0nFd02fYY1kFLqt1YIfv+Mca3zoZtSpyr9NNT9uTTyOGVGrtgPtOvhqfOhm+NwV9w6eaEs791Dz9jZnv4lDt4k0/2Sp89+o+i5PHroZ14ceuPeRaNyXfeeLf8TcO89ddxsS9V7zQgf/irlZLqRgvsQ/ZueGs00u50t8YL4Opl0RtEKbzJd/58u+Z44aG+ap7aWkthfmj1uIwAQU3Zu9cC4WFBijc9GtGv9pySh8mcjCSu1yjrc9uc/AXB3M94T91XO0pCb7/ppfMnP0ZRg05Sj22arzJfwFUttPfTq42Zd07Su0yBzL0LAuxoVpubx/rhyuSyGvRbx8XJd4aa+Rc0sMw3L9/XNM8+csl79L4wx8pj6zQ8NTLFACAECJm/P49773ht0uOgsWVOv27VT1+uWB8ytt5X5+Hq8C7dFHH3W2I7r/xQHd/uwf9a/hd3U3HNSDh6pV8ehyVc1/WMN//UT/09vJDcEee7LRTfZNhVr0k/9rdJ9hZ5+5j/r1nUd/qIeGfq9/+3dvF9f8n2m+z6//+fAPNdf/E1XcD+r2n/5Btwf+0etv7k9V9V3pOyNXdfdW/FcX5zif/t/1dxXeMQ46x2iq1dz+hqv1d77lzi1Ff7keZ4K1mvdUkyqip3U74ZhSWasFTdtUZY4z/P/q9nWnvwHTn3Mb+qsemt+kv6v6vr4z/K6G/2Z3yZsardn0pPzfRHT+X77URJ/cQMtG/Wqlc6EVVfD4f9aOv///9JtTffpN/209/IMn9YNHv6sfvFCrv576TAnFFGvW6z9uMIlbVKed/d6w+3309Rz9sLFOj5oVSrd26bDT9rv/kSqlrNX/sulHzuv/Rf/l/0567TSG5j6s/7C0QpHQPf230QnLH1L9U84x6t91/o//Pv5cbw3rrzXz1FRdoaYfztN/eKpCD//bA31ya/QTnFJgVbV+FTCfFlOddls7zn2j3wTv6TehB3rYX6kfVH1HP/hhhf4aHB499vqnTD/f0aNVpuJnUG/813/Tw+bYqh92bkltVRX6zp2481g2X8eef9jZcPr7+Bu99d4d/SfTn3P76E6Ffuict/97f6eHQ3/TJ7HPi3Nu7jG5twda2lgp/9A97f5/hkb3Hb197oUDnu/oxz8yx+Ccw1JnH3O8zjm+Yc/R9LfO6U9VD8sXf4zOb/0nf0x6XfPzc6q07nvf0b/+5b5+dyPVdY31Z96DbPpzONflPzZ41yVxn4eca/Kw8zkzFUVRHXbaUvedmdhn69H7/z52rWq+q/9zpelDqdv/8jf9p1hbLu9frtcl5/c9e1O+Lo7qRd91Ph9zdHduhf6PHzjXaMh5z878qw7/V/s7Ffw3fTTk/O7G/R3M5fdvpj5nOf1dGueevln4tNYtr1K4/xN9cts2T2DgL3O09Ad18jtvRPjMf9bh/5ZhCTYAACgoKt4ApFWx6Nea505e9p4G+3bq9mAobhhkSPdvHNbgH4/q9ufxw03XasGTje7W/S9e0WDCsFBnf7NP2Pwzfp0qfYk1BhVVXh1ChalaC+/VV//9sO7fi9U8OP2F35t4GOb9Pt1NGBrq9Dfo9Ne3V7fHDQPN/TgTzF0kU9/hVulNourpbapS0D2W22ZIafzx3Lugbz73zq+iaoL+Cq1+tV43c6zZYUqHPoirPBu4qq49J3XaLdtYqk1JcwgFbFlI8HiXuuL2C31wSTuOX3O2luq5CecrWqjFJreLRDOrCBmVZpXAoVQrCnp6f/+1dn887M25VF2pjS/41P3Lhdq1Ks1qpjXz9LpdkMEMj0uYG25wWF0nnevlfpOu1KYUVUxmPjlvmN2ILoa8ACK+bfycUBVqa/DmonOHoF5OHEYX+vSOdrxvKvfmqOmp8f1NiQlB3r6lrrhzNP112gNIrHTKgyz7C9jH5rok7nPXXpNKPbfMa5uST4e9lYCrvSGUroWmWsppN8c2rt15T22lU17ev+l+HzI1peuSqDFQ6Q7HbD1pht3G/U45vxOh+Aq5Kf7+uab9c5b936XUfFq82G5OZuCSDu3xVrLOZKg+AACYHgRvANJYq3nueMGgbv/3CeZxu3chYf60ikWb3IUGRsJ7dTvN0CIz75p5vYrvPuE1WN6QTROE7dXgjfRfTcaHXCGnzbmrelkLnl6rinFDX0Pj5nibynEm+K4N3u5P9lVqrSpNnqVGLfjRO3q8KcXtRy+7rzWjFvu8YVj9wTRzA91U129NiCb5Vz6dOqSaQJ0/zxN+O1+cW82X6YT30K6qOck8VqHLd7QjbiVTE4I0rvCGrO1alvRO2ABBobtJfcU4ffZ7/fkD48O7hCFnVnxbbGjaqJpKNblD9O6pJ9W8b4YNQFL1l7sHOm3mHrOP4o07xrwoTH/5CaUe6EvzuTDDFL0Gb2EO57g+NMdWXTm68m0spBl9T6f8/k33+5CNKVyXZCHndzCTOfim+Ps37Z+zKfxdihcKj0vkAQBACSJ4A5CareRS9LLuuw2Z8cKziIaj2f2bvvMVzdnX3Ac1nGZBgwpfU9qQ6/5ne3U7GnHngKtxg63DWrBobdogK/fjTFTlM1Vz5pi9x2nZlU+LXaxqLRxOVaphfRn1KsXqfKNfvI3Yl8TGV9erOX4OuPrl2vWqmbvNueLh4qvC8FYydb4Qv3tHp91qNDPfmk+74qpZYgFCusodV2zVwrhAImexoKF6rg7+8jF1p7zNl1ezObuEbIjjzokXP6eXmcPrBa/KLG3Qk5VYJWKssik2X9mIet3Xn6PFC027tMR5z6VhfRgL2cr6/ZvCdUky4e9TnGn//XNM3+cMAACUO4I3AKnFKrkyGEI5JhaeTbLQQMrXfkJz3GGtN5yvdanFwrIHKec/C+n+Zzv11R/36nY46LyGXazADeCS6x+mcpzx7OtMcMwxsWG0ZljrV30T3yaq9itqH5xVZ7/ZWKr2/e3qPmFv+9d5AUP/efV8YDaKlBmy9vtb2v2x9+XeLICQv0oy5M3o8EBvgYLRIGuzDbJCd9JXmWUpVg3lVTbN0eJqG/7YkMdrr9Rz5oPitGc3RLp0zYrrMo2fs3Ri/xACAABKG8EbgGkW0CN+r84joXItVhH2t3QhVoZh2T0795wJsf54VPfvmwDu1ylXXp1YmuNMYMPCtMc83ozO35YFv9+WrKQSG46aci62qPtft/JkVFTBM+e1+8jVSeY2uqUv3Wn1Eivpplvoczv3Wwp+t4InjViVUz6Chlj1jvPlvvXtrye+nbw78XXNUwVQcfGCn8T3ySxicEe7f584n9pUxD4L7vu+rNINXNwqp8Fh9Q3ZYY01FXIHycfP3ZXP9y9XBXzfc74uUzRtv3+jpudzNrGovvzSbgIAgJJE8AYgNRsmVfg3px8iOTd5KKeda835GlYZPzQnTvyCDXfjhmeOVoRFL7j346WriFvrzetmHyW4d8GtfpPz9W+OG9rF5H6cCWxYmElV4Mh976tbxcLVqY/VUVETSPvcqPrV2nXAqyTrSFrcICOThFqhy9e8L5kNjWqLHy46qlZtv/CGjYavfJb4xXPNerU3SKf3dWrHVm+Cb+/WpUM9k4Vuxk3d+Iu5r9ailH3nR/NLKeZwixf7Ah9nNIwLzFNbys/M2GT64VAevpDbACN9f9mo0KIpv0YRWTZf7QHnc/bu1+4cfWMh1vhFDKZscETuWiLVFWp2q7hiwybtcEsTbtnPS8IwyLy+f7kq4Pue63XJ0bT//hnT+TlLqVbPrzQTgw7pRiZLPLuWj/3/Yfty2wYAAGYawRuA1O5d0rA7uVujFvx4p6rmxlVqOdtVTx/W4z/aNm4Y5/2ou96dqp48rAU18fus1SPOPjXugg0R3U1YCdX52jThMFJHLOS6dSlxP7NIgpnX7cdefwlxitPnAlu1lizX40zFhGlVsYo6c23iXy9m0M6VV/Wyc6ytYz/vqIj1+eSbmjfJF+XmTSvV6JaRSP4NL6YJx1Kx1WTuaqTLx4ZQ1i9PnI9t4JJOucNFfdq4v0271sSFe87Pth3Yoo1u/9d0KmnVPG9YlE+LV+W+gELvR2bhBp+apvAaE6qZp00Bbw63ji1m7qbEAC7gfNnusPM3BfvjKpEG7+qU+2CONm5OCu5qKtW2xble7qiwYZ3KZLL4ScUmi7f9mdVWEz4bFWpe5RzrL51zsC3jDevD2DH/dF7SPFXO/hOFj0XMm+9rjhbnezXXlMYWEnjOVFvFVVP1XjPvT4Wec3PoB+r7PP59z8f7l6vpeN9zvS45mvbfv+n+nKVQ/7SazN/a/s9TLgqRSqClcez/D2n/8QQAAEy3h555dsW3drvoLFkS0PXro197yg7nV9rK/fxcc1tVM8FKmyPR93T7s/HBVNXT72iBu4JnKhHd/eNOfZMwXDSgR378puZVBXW773DKxRwqFnlhmJkjLXkV0thzaUWPavCzC3k4zmRrtaBp2/iKwPvvaTDVSrA1O/X4k6mDQGPEOc7bKY4zXvP2dreqzBPV6X1daVYfHS/Q0qaDG1KccP95tR65ah8YtXEBWypp+q1frY79K8dVi8ULR66p77d96vog3SILy7XrxDo1Rq5o955LhakqqZmnXT+dq8YJpk8Km9UWx60+WBH3BT+VBzr9buJKhs0vPeZWzQTf/1qH7HxQgVULdXDFnEnbjFh7WkPD7mqNqVd6dDjn2rF5bpr3ZFidb8dWeoyd2/hziIkdS/jj6KQrUU7+s1Pob8Jz8oSd69LXf09dn058nJmIvYcuM3Q09rlIOI74azkm+/cvT+9Dxu977vJxXTL5LI3J/vevlD5nyWJ/r4PHO3Uow7kxk//Gh8+c1I6kfyABAADTj4o3AOnd69Zgn7daaMLXivtB3f1irwZThG7G/c9e0eAXQY3EJ2j3I7ofPuq8Xqowa2oLK4zcMIsqHNXdpOMcMX26x5k6zMr+OJNd0O0/vqf7cfuPmGsTTqzKGzV42M4755aejXIDzD86xzJJ6Gb0nrqioN09fOZcxqGbEerp0u4zdihpTOSaTn+UvILpTXXt6dTu42N9eaIK95/X7q1pwr6Bz3Sq35vjLR1/3VJtfHWLdq2xDeNcVc8Z5zXqVur1XIbSZmLQrGIa1e73h50vzrbNMl+kO991voCPC92MEXWd/NrZ756CCfs9cIO63W+n/mI/FaHLt0ZXW01434bsPFMnJwjdDOdcdzj7B5OG+5nzPO2cx1TDlxkxOKxT7uqz6fmrK7UxaWXaXHkVXJ5g3PbocEsjruIr3pTfv1xNw/s+leuSm2n+/Zvmz1mi5WoxAVrkSlYL0oR6gkl/swEAQDGg4m0GcX6lbVZUvAEZs1VymqhSrVbN27e4FXsTV2LEKu6yq+jDbGArmHRPu9MuSlCh5pd8bjVWdhVVQMzMfs68yuYp/P1bs17dry6l4g0AgCJBxRsAYOrsfETjFlxIcFPXwxNXxHluquvYFYXdeebWF2AOLJSsmko1VTufswkn0B/R9aRKLyArM/g5M8NFvX+cyK6iOZ4332ZUfZcJ3QAAKAYEbwCAvDELPpgFGWJTP8UEzMIM22PzD41fmGGcgUvacdwMi12q9gOEb0jkXzHfnWB/3OfMTLT/UmxetfxNtI/Zabo/Z6NztPWfz71SrX61XndfI0i1MAAARYKhpjOI8yttDDUFEiUu/JCGmVPu2NnMvxCaBRte8+mUs08vXyLhSJjUP51xixYA2ZmJz5kJ3l73B7UjYbGbTNU6+zfp9Q1L5Xf+znbucf5m2mcAAMDMInibQZxfaSN4A8YLrFmtll8sVV2dL2E1wNhqphc/uDnB0C0gM4Fl89TSUKm66jmJn7Mhb5XJi5+O8DnDlJXW58xbEbqu/7zeOnKVzz8AAEWE4G0GcX6ljeANAAAAAABMhDneAAAAAAAAgAIgeAMAAAAAAAAKgOANyBHDTAEAAAAAwEQI3gAAAAAAAIACIHgDAAAAAAAACoDgDQAAAAAAACgAgjcAAAAAAACgAAjeAAAAAAAAgAIgeAOmoHl7u7pPxG5t6jiwXs319kkAAAAAADCrEbwBeeOTv26p2vevV7NtAQAAAAAAsxfBGzAFvUc61brV3vad1+mIaa3WIqreAAAAAACY9QjegHwZuKqLV6L2AQAAAAAAmO0I3oA8CoWH7BYAAAAAAJjtCN6APAr4q+0WAAAAAACY7QjegLwb0o0BuwkAAAAAAGYtgjcAAAAAAACgAAjegLxbqvYDq9XMyqYAAAAAAMxqBG9AHoV6zqmzP6pw3Uq1729X94l2dbTU2mcBAAAAAMBsQvAGFIDf3gMAAAAAgNmL4A3IpzVNam/wSZFr6tx3Uq1bO7Wj56Z9EgAAAAAAzCYEb0AeBfzVzn+jOn3srHoHCNwAAAAAAJjNCN6AvBvSjQG7CQAAAAAAZi2CNyDvqrWIFU0BAAAAAJj1CN4AAAAAAACAAiB4A/IoFB6yWwAAAAAAYLYjeAPyyFtcAQAAAAAAgOANyJ/65WrZ4LMPAAAAAADAbEfwBkxB8/Z2dZ+wt/3r1GgaI9d0kVVNAQAAAACY9QjegLyJKtx/RZ3HLilkWwAAAAAAwOz10DPPrvjWbhedJUsCun69fCMMzg8AAAAAAKB8UfEGAAAAAAAAFADBGwAAAAAAAFAABG8AAAAAAABAARC8oWCY3w0AAAAAAMxmBG8AAAAAAABAARC8AQAAAAAAAAVA8AYAAAAAAAAUAMEbAAAAAAAAUAAEbyhagZY2dWxfbh8BAAAAAACUFoI3FFTz9nZ1n4jd2tRxYL2a6+2TGfA3rFM34RsAAAAAAChBBG+YRj7565aqff96NduWiYR6urT7TFRqWKeOllrbCgAAAAAAUBrmPP69771ht4vOggXVun17yD4qP+V+fsbAh336zSl767+th3/wpH7wqBTu/0Sf3LY/NIGh//GJ/lrfpP+12a+HM9wHAAAAAACgGFDxhukzcFUXr0Ttg8z1HjmvoHza+NpqBWwbAAAAAABAsSN4w7QKhXOp8LuqHjPktG6lWtbYpkzUr9auA978cgxVBQAAAAAA043gDdMq4K+2W9kJXb6msHPf+JPMF1po3rRSjXXetn/Di2rLYlEHAAAAAACAqSJ4wwwY0o0Bu5mpgc/UF3HuG57KaGEGAAAAAACAmUbwhhJx084PV61FGVau9Z66oqAJ6xzhM+fUlW3YBwAAAAAAMAUEb5gBS9V+YLWacxr66dPixXZzMgOXdGhPp1q3dmpHz03bCAAAAAAAMD0I3jCtQj3n1NkfVbhupdr3Z7fwQW4LMwAAAAAAAMwMgjfMCL+9BwAAAAAAKFcEb5hea5rU3uCTItfUue9kVsNAc10RFQAAAAAAYCYQvGFaeeFZVKePnVXvQC7zrkX15Zd2EwAAAAAAoIgRvGEGDOlG1iuM1ur5lT7nPpt9l2vXATuP3Pbltg0AAAAAAGB6ELxhBlRrUbYrmtY/raY6577/c/V6LZMKtDSq0ezj8Dc0qi2nVVQBAAAAAAByQ/CGkhBYtdRdkCH40VWvIWs+Na3KbPVUAAAAAACAfCB4w7QKhYfsVjaWq2WDWZDhino+sE0ZCPUEFYzYBwAAAAAAANOM4A3TKpeVSZu3r1OjuyDDJYVsW2au6tCeTrUev2YfAwAAAAAATB+CN0yfelu5loVAS5vaG6TwmXPqynpBBk9sJdW+y7msogoAAAAAAJAbgjcUVPN2b1VR97bfVK45Itd0MYMQzYRuB01Q139eO3pyDM3qV+t19zWCOQd3AAAAAAAAuSB4wzSKKtx/RZ1ZDBkN959X65FcFlSoVaBlvTr2r5Q/ck2dOb0GAAAAAABA7h565tkV39rtorNkSUDXr2c3q1cpKffzm1nLtevEOtX1n9dbR65mOTccAAAAAADA1BG8zSCCNwAAAAAAgPLFUFMAAAAAAACgAAjeAAAAAAAAgAIo6qGmAAAAAAAAQKmi4g0AAAAAAAAoAII3AAAAAAAAoAAI3gAAAAAAAIACIHgDAAAAAAAACoDgDQAAAAAAACiAol/VtHl7u9ob7ANFFY4M6dSxs+odsE0AAAAAAABAESqxijef/HVL1b5/vZptCwAAAAAAAFCMir7iLUH9crW9tk4b66I6va9LXVS9AQAAAAAAoEiVVsXbwFVdvBK1DwAAAAAAAIDiVXKLK4TCQ3YLAAAAAAAAKF4lF7wF/NV2CwAAAAAAACheJRe8eYZ0g/ndAAAAAAAAUMRKNHgDAAAAAAAAiluJBm9L1X5gtZrr7UMAAAAAAACgyDz0zLMrvrXbJaJWzdtf1KYGn/y2JXzmpHb03LSPAAAAAAAAgJlXskNNY6EbAAAAAAAAUIxKr+JtzXp1v7pUilxT57E+9Q5Q6QYAAAAAAIDiU3IVbwF/tfPfqE4fO0voBgAAAAAAgKJVokNNh3RjwG4CAAAAAAAARahEg7dqLWJFUwAAAAAAABSxkl1cAQAAAAAAAChmJRe8hcJDdgsAAAAAAAAoXiW6uAIAAAAAAABQ3EoreKtfrpYNPvsAAAAAAAAAKF4PPfPsim/tdlFq3t6u9gb7ICZyRbv3XFLIPgQAAAAAAACKTYkNNY0q3H9FnccI3QAAAAAAAFDcir7iDQAAAAAAAChFJbe4AgAAAAAAAFAKCN4AAAAAAACAAiB4AwAAAAAAAAqA4A0AAAAAAAAoAII3AAAAAAAAoAAI3gAAAAAAAIACIHgDAAAAAAAACoDgDQAAAAAAACgAgjcAAAAAAACgAAjeAAAAAAAAgAIgeAMAAAAAAAAKgOANAAAAAAAAKACCNwAAAAAAAKAACN4AAAAAAACAAiB4AwAAAAAAAAqA4A0AAAAAAAAoAII3AAAAAAAAoAAI3gAAAAAAAIACIHgDAAAAAAAA8k76/wGmS8IxExsahAAAAABJRU5ErkJggg==;" vertex="1" parent="1">
          <mxGeometry x="1000" y="260" width="1246" height="607" as="geometry" />
        </mxCell>
      </root>
    </mxGraphModel>
  </diagram>
</mxfile>
